<?xml version="1.0" encoding="UTF-8"?>
<svg id="Ebene_2" data-name="Ebene 2" xmlns="http://www.w3.org/2000/svg" viewBox="0 0 155.16 141.73">
  <defs>
    <style>
      .cls-1 {
        fill: #fff;
      }

      .cls-1, .cls-2 {
        stroke-width: 0px;
      }

      .cls-2 {
        fill: #1d1d1b;
      }
    </style>
  </defs>
  <g id="a">
    <g>
      <path class="cls-2" d="M102.62,0h-50.1c-9.82,0-18.89,5.23-23.8,13.74L3.68,57.13c-4.91,8.5-4.91,18.98,0,27.48l25.05,43.39c4.91,8.5,13.98,13.74,23.8,13.74h50.1c9.82,0,18.89-5.23,23.8-13.74l25.05-43.39c4.91-8.5,4.91-18.98,0-27.48l-25.06-43.39c-4.91-8.5-13.98-13.74-23.8-13.74Z"/>
      <path class="cls-1" d="M81.83,43.23c1.17,0,2.13.96,2.13,2.13v38.27c0,1.17-.96,2.13-2.13,2.13h-14.46c-2.21-3.81-6.32-6.38-11.06-6.38s-8.85,2.56-11.06,6.38h-1.7c-1.17,0-2.13-.96-2.13-2.13v-38.27c0-1.17.96-2.13,2.13-2.13h38.27ZM86.08,92.13c0,7.04,5.71,12.76,12.76,12.76s12.76-5.71,12.76-12.76h5.31c1.77,0,3.19-1.42,3.19-3.19s-1.42-3.19-3.19-3.19h-1.06v-16.3c0-1.98-.78-3.87-2.18-5.26l-12.4-12.4c-1.4-1.4-3.28-2.18-5.26-2.18h-5.67v-4.25c0-4.69-3.81-8.5-8.5-8.5h-38.27c-4.69,0-8.5,3.81-8.5,8.5v38.27c0,4.69,3.81,8.5,8.5,8.5,0,7.04,5.71,12.76,12.76,12.76s12.76-5.71,12.76-12.76h17.01ZM109.16,68.69s.04.04.05.05h-18.88v-12.76h5.67c.28,0,.56.11.76.31l12.4,12.4ZM49.94,92.13c0-3.52,2.86-6.38,6.38-6.38s6.38,2.86,6.38,6.38-2.86,6.38-6.38,6.38-6.38-2.86-6.38-6.38ZM98.84,85.75c3.52,0,6.38,2.86,6.38,6.38s-2.86,6.38-6.38,6.38-6.38-2.86-6.38-6.38,2.86-6.38,6.38-6.38Z"/>
    </g>
  </g>
</svg>