<?xml version="1.0" encoding="UTF-8"?>
<svg id="Layer_2" data-name="Layer 2" xmlns="http://www.w3.org/2000/svg" viewBox="0 0 396 396">
  <defs>
    <style>
      .cls-1 {
        fill: #90a4ae;
      }

      .cls-1, .cls-2 {
        stroke-width: 0px;
      }

      .cls-2 {
        fill: #ebf7f8;
      }
    </style>
  </defs>
  <g id="Layer_1-2" data-name="Layer 1">
    <path class="cls-2" d="M198,0C88.65,0,0,88.65,0,198s88.65,198,198,198,198-88.65,198-198S307.35,0,198,0ZM173.21,327.77c-6.56-6.56-10.22-15.47-10.22-24.77h70c0,9.3-3.67,18.21-10.23,24.77-6.56,6.57-15.48,10.23-24.77,10.23s-18.21-3.66-24.78-10.23ZM318.96,275.16c-2.85,6.29-9.08,10.34-15.97,10.34H92.99c-6.89,0-13.18-4.05-15.97-10.34-2.79-6.29-1.7-13.67,2.9-18.81l4.04-4.54c17.07-19.25,26.53-44.08,26.53-69.78v-10.28c0-42.33,30.08-77.66,70-85.75v-10.5c0-9.68,7.82-17.5,17.5-17.5s17.5,7.82,17.5,17.5v10.5c39.92,8.09,70,43.42,70,85.75v10.28c0,25.76,9.46,50.53,26.52,69.78l4.05,4.54c4.59,5.14,5.74,12.53,2.9,18.81Z"/>
    <path class="cls-1" d="M198,15C96.93,15,15,96.93,15,198s81.93,183,183,183,183-81.93,183-183S299.07,15,198,15ZM222.76,327.77c-6.56,6.57-15.48,10.23-24.77,10.23s-18.21-3.66-24.78-10.23-10.22-15.47-10.22-24.77h70c0,9.3-3.67,18.21-10.23,24.77ZM318.96,275.16c-2.85,6.29-9.08,10.34-15.97,10.34H92.99c-6.89,0-13.18-4.05-15.97-10.34-2.79-6.29-1.7-13.67,2.9-18.81l4.04-4.54c17.07-19.25,26.53-44.08,26.53-69.78v-10.28c0-42.33,30.08-77.66,70-85.75v-10.5c0-9.68,7.82-17.5,17.5-17.5s17.5,7.82,17.5,17.5v10.5c39.92,8.09,70,43.42,70,85.75v10.28c0,25.76,9.46,50.53,26.52,69.78l4.05,4.54c4.59,5.14,5.74,12.53,2.9,18.81Z"/>
    <path class="cls-2" d="M232.8,135.88h10.8l-15.6,15.6c-1.96,1.96-2.51,4.89-1.49,7.4s3.53,4.21,6.29,4.21h27.21c3.74,0,6.8-3.06,6.8-6.8s-3.06-6.8-6.8-6.8h-10.8l15.6-15.6c1.96-1.96,2.51-4.89,1.49-7.4s-3.53-4.21-6.29-4.21h-27.21c-3.74,0-6.8,3.06-6.8,6.8s3.06,6.8,6.8,6.8h0ZM273.62,88.26c0,3.74,3.06,6.8,6.8,6.8h10.8l-15.6,15.6c-1.96,1.96-2.51,4.89-1.49,7.4s3.53,4.21,6.29,4.21h27.21c3.74,0,6.8-3.06,6.8-6.8s-3.06-6.8-6.8-6.8h-10.8l15.6-15.6c1.96-1.96,2.51-4.89,1.49-7.4s-3.53-4.21-6.29-4.21h-27.21c-3.74,0-6.8,3.06-6.8,6.8ZM253.78,182.82c-7.48,9.99-22.45,9.99-29.93,0-2.25-3.02-6.51-3.61-9.52-1.36s-3.61,6.51-1.36,9.52c12.93,17.22,38.78,17.22,51.7,0,2.25-3.02,1.66-7.27-1.36-9.52s-7.27-1.66-9.52,1.36h0ZM142.22,182.82c-2.25-3.02-6.51-3.61-9.52-1.36s-3.61,6.51-1.36,9.52c12.93,17.22,38.78,17.22,51.7,0,2.25-3.02,1.66-7.27-1.36-9.52s-7.27-1.66-9.52,1.36c-7.48,9.99-22.45,9.99-29.93,0h0ZM209,250c0,7.72-2.92,14.01-10.64,14.01s-11.36-6.29-11.36-14.01,3.28-13.92,11-13.92,11,6.2,11,13.92Z"/>
  </g>
</svg>