<?xml version="1.0" encoding="UTF-8"?>
<svg xmlns="http://www.w3.org/2000/svg" version="1.1" xmlns:xlink="http://www.w3.org/1999/xlink" viewBox="0 0 613 137">
  <defs>
    <style>
      .cls-1 {
        fill: url(#Unbenannter_Verlauf_13-24);
      }

      .cls-1, .cls-2, .cls-3, .cls-4, .cls-5, .cls-6, .cls-7, .cls-8, .cls-9, .cls-10, .cls-11, .cls-12, .cls-13, .cls-14, .cls-15, .cls-16, .cls-17, .cls-18, .cls-19, .cls-20, .cls-21, .cls-22, .cls-23, .cls-24, .cls-25, .cls-26, .cls-27, .cls-28, .cls-29, .cls-30, .cls-31, .cls-32, .cls-33, .cls-34, .cls-35, .cls-36, .cls-37, .cls-38, .cls-39, .cls-40, .cls-41, .cls-42, .cls-43 {
        stroke-width: 0px;
      }

      .cls-2 {
        fill: url(#Unbenannter_Verlauf_13-26);
      }

      .cls-3 {
        isolation: isolate;
        opacity: .8;
      }

      .cls-4 {
        fill: url(#Unbenannter_Verlauf_13-20);
      }

      .cls-5 {
        fill: url(#Unbenannter_Verlauf_13-21);
      }

      .cls-6 {
        fill: url(#Unbenannter_Verlauf_13-31);
      }

      .cls-7 {
        fill: url(#Unbenannter_Verlauf_13-34);
      }

      .cls-8 {
        fill: url(#Unbenannter_Verlauf_13-2);
      }

      .cls-9 {
        fill: url(#Unbenannter_Verlauf_13-5);
      }

      .cls-10 {
        fill: url(#Unbenannter_Verlauf_13-15);
      }

      .cls-11 {
        fill: url(#Unbenannter_Verlauf_13-38);
      }

      .cls-12 {
        fill: url(#Unbenannter_Verlauf_13-40);
      }

      .cls-13 {
        fill: url(#Unbenannter_Verlauf_13-37);
      }

      .cls-14 {
        fill: url(#Unbenannter_Verlauf_13-18);
      }

      .cls-15 {
        fill: url(#Unbenannter_Verlauf_13-33);
      }

      .cls-16 {
        fill: url(#Unbenannter_Verlauf_13-14);
      }

      .cls-17 {
        fill: url(#Unbenannter_Verlauf_13-22);
      }

      .cls-18 {
        fill: url(#Unbenannter_Verlauf_13-29);
      }

      .cls-19 {
        fill: url(#Unbenannter_Verlauf_13-30);
      }

      .cls-20 {
        fill: url(#Unbenannter_Verlauf_13-42);
      }

      .cls-21 {
        fill: url(#Unbenannter_Verlauf_13-3);
      }

      .cls-22 {
        fill: url(#Unbenannter_Verlauf_13-13);
      }

      .cls-23 {
        fill: url(#Unbenannter_Verlauf_13);
      }

      .cls-24 {
        fill: url(#Unbenannter_Verlauf_13-9);
      }

      .cls-25 {
        fill: url(#Unbenannter_Verlauf_13-35);
      }

      .cls-26 {
        fill: url(#Unbenannter_Verlauf_13-11);
      }

      .cls-27 {
        fill: url(#Unbenannter_Verlauf_13-17);
      }

      .cls-28 {
        fill: url(#Unbenannter_Verlauf_13-7);
      }

      .cls-29 {
        fill: url(#Unbenannter_Verlauf_13-4);
      }

      .cls-30 {
        fill: url(#Unbenannter_Verlauf_13-12);
      }

      .cls-31 {
        fill: url(#Unbenannter_Verlauf_13-39);
      }

      .cls-32 {
        fill: url(#Unbenannter_Verlauf_13-10);
      }

      .cls-33 {
        fill: url(#Unbenannter_Verlauf_13-41);
      }

      .cls-44 {
        display: none;
      }

      .cls-34 {
        fill: url(#Unbenannter_Verlauf_13-25);
      }

      .cls-35 {
        fill: url(#Unbenannter_Verlauf_13-28);
      }

      .cls-36 {
        fill: url(#Unbenannter_Verlauf_13-8);
      }

      .cls-37 {
        fill: url(#Unbenannter_Verlauf_13-36);
      }

      .cls-38 {
        fill: url(#Unbenannter_Verlauf_13-19);
      }

      .cls-39 {
        fill: url(#Unbenannter_Verlauf_13-16);
      }

      .cls-40 {
        fill: url(#Unbenannter_Verlauf_13-32);
      }

      .cls-41 {
        fill: url(#Unbenannter_Verlauf_13-27);
      }

      .cls-42 {
        fill: url(#Unbenannter_Verlauf_13-23);
      }

      .cls-43 {
        fill: url(#Unbenannter_Verlauf_13-6);
      }
    </style>
    <linearGradient id="Unbenannter_Verlauf_13" data-name="Unbenannter Verlauf 13" x1="187.1" y1="233.9" x2="508.3" y2="36" gradientUnits="userSpaceOnUse">
      <stop offset="0" stop-color="#41b6e6"/>
      <stop offset="1" stop-color="#005eb8"/>
    </linearGradient>
    <linearGradient id="Unbenannter_Verlauf_13-2" data-name="Unbenannter Verlauf 13" x1="406.5" y1="60.7" x2="431.9" y2="45" xlink:href="#Unbenannter_Verlauf_13"/>
    <linearGradient id="Unbenannter_Verlauf_13-3" data-name="Unbenannter Verlauf 13" x1="445.8" y1="117.9" x2="501.4" y2="83.7" xlink:href="#Unbenannter_Verlauf_13"/>
    <linearGradient id="Unbenannter_Verlauf_13-4" data-name="Unbenannter Verlauf 13" x1="408.1" y1="103.3" x2="431.6" y2="88.8" xlink:href="#Unbenannter_Verlauf_13"/>
    <linearGradient id="Unbenannter_Verlauf_13-5" data-name="Unbenannter Verlauf 13" x1="406.2" y1="75.3" x2="432" y2="59.4" xlink:href="#Unbenannter_Verlauf_13"/>
    <linearGradient id="Unbenannter_Verlauf_13-6" data-name="Unbenannter Verlauf 13" x1="406.6" y1="89.8" x2="431.9" y2="74.2" xlink:href="#Unbenannter_Verlauf_13"/>
    <linearGradient id="Unbenannter_Verlauf_13-7" data-name="Unbenannter Verlauf 13" x1="468.2" y1="94.1" x2="478.9" y2="87.5" xlink:href="#Unbenannter_Verlauf_13"/>
    <linearGradient id="Unbenannter_Verlauf_13-8" data-name="Unbenannter Verlauf 13" x1="464.4" y1="91.8" x2="472.4" y2="86.9" xlink:href="#Unbenannter_Verlauf_13"/>
    <linearGradient id="Unbenannter_Verlauf_13-9" data-name="Unbenannter Verlauf 13" x1="414" y1="113" x2="497.3" y2="61.7" xlink:href="#Unbenannter_Verlauf_13"/>
    <linearGradient id="Unbenannter_Verlauf_13-10" data-name="Unbenannter Verlauf 13" x1="478.2" y1="88.9" x2="507" y2="71.2" xlink:href="#Unbenannter_Verlauf_13"/>
    <linearGradient id="Unbenannter_Verlauf_13-11" data-name="Unbenannter Verlauf 13" x1="501.7" y1="82.9" x2="502.3" y2="82.5" xlink:href="#Unbenannter_Verlauf_13"/>
    <linearGradient id="Unbenannter_Verlauf_13-12" data-name="Unbenannter Verlauf 13" x1="468.5" y1="113.5" x2="486.4" y2="102.5" xlink:href="#Unbenannter_Verlauf_13"/>
    <linearGradient id="Unbenannter_Verlauf_13-13" data-name="Unbenannter Verlauf 13" x1="465.2" y1="85.7" x2="473.6" y2="80.6" xlink:href="#Unbenannter_Verlauf_13"/>
    <linearGradient id="Unbenannter_Verlauf_13-14" data-name="Unbenannter Verlauf 13" x1="426.2" y1="114.8" x2="505.8" y2="65.8" xlink:href="#Unbenannter_Verlauf_13"/>
    <linearGradient id="Unbenannter_Verlauf_13-15" data-name="Unbenannter Verlauf 13" x1="268.7" y1="181.2" x2="519.1" y2="26.9" xlink:href="#Unbenannter_Verlauf_13"/>
    <linearGradient id="Unbenannter_Verlauf_13-16" data-name="Unbenannter Verlauf 13" x1="439.7" y1="46.1" x2="459.6" y2="33.9" xlink:href="#Unbenannter_Verlauf_13"/>
    <linearGradient id="Unbenannter_Verlauf_13-17" data-name="Unbenannter Verlauf 13" x1="470.4" y1="90.7" x2="513.7" y2="64.1" xlink:href="#Unbenannter_Verlauf_13"/>
    <linearGradient id="Unbenannter_Verlauf_13-18" data-name="Unbenannter Verlauf 13" x1="441" y1="79.4" x2="459.3" y2="68.1" xlink:href="#Unbenannter_Verlauf_13"/>
    <linearGradient id="Unbenannter_Verlauf_13-19" data-name="Unbenannter Verlauf 13" x1="439.5" y1="57.5" x2="459.6" y2="45.1" xlink:href="#Unbenannter_Verlauf_13"/>
    <linearGradient id="Unbenannter_Verlauf_13-20" data-name="Unbenannter Verlauf 13" x1="439.9" y1="68.8" x2="459.6" y2="56.7" xlink:href="#Unbenannter_Verlauf_13"/>
    <linearGradient id="Unbenannter_Verlauf_13-21" data-name="Unbenannter Verlauf 13" x1="487.8" y1="72.2" x2="496.2" y2="67" xlink:href="#Unbenannter_Verlauf_13"/>
    <linearGradient id="Unbenannter_Verlauf_13-22" data-name="Unbenannter Verlauf 13" x1="484.9" y1="70.4" x2="491.1" y2="66.6" xlink:href="#Unbenannter_Verlauf_13"/>
    <linearGradient id="Unbenannter_Verlauf_13-23" data-name="Unbenannter Verlauf 13" x1="445.6" y1="86.9" x2="510.5" y2="46.9" xlink:href="#Unbenannter_Verlauf_13"/>
    <linearGradient id="Unbenannter_Verlauf_13-24" data-name="Unbenannter Verlauf 13" x1="495.7" y1="68.2" x2="518.1" y2="54.4" xlink:href="#Unbenannter_Verlauf_13"/>
    <linearGradient id="Unbenannter_Verlauf_13-25" data-name="Unbenannter Verlauf 13" x1="513.9" y1="63.4" x2="514.4" y2="63.1" xlink:href="#Unbenannter_Verlauf_13"/>
    <linearGradient id="Unbenannter_Verlauf_13-26" data-name="Unbenannter Verlauf 13" x1="488.1" y1="87.3" x2="502" y2="78.7" xlink:href="#Unbenannter_Verlauf_13"/>
    <linearGradient id="Unbenannter_Verlauf_13-27" data-name="Unbenannter Verlauf 13" x1="485.5" y1="65.7" x2="492.1" y2="61.6" xlink:href="#Unbenannter_Verlauf_13"/>
    <linearGradient id="Unbenannter_Verlauf_13-28" data-name="Unbenannter Verlauf 13" x1="455.1" y1="88.3" x2="517.1" y2="50.1" xlink:href="#Unbenannter_Verlauf_13"/>
    <linearGradient id="Unbenannter_Verlauf_13-29" data-name="Unbenannter Verlauf 13" x1="326" y1="141.7" x2="528.3" y2="17.1" xlink:href="#Unbenannter_Verlauf_13"/>
    <linearGradient id="Unbenannter_Verlauf_13-30" data-name="Unbenannter Verlauf 13" x1="464.2" y1="32.6" x2="480.2" y2="22.7" xlink:href="#Unbenannter_Verlauf_13"/>
    <linearGradient id="Unbenannter_Verlauf_13-31" data-name="Unbenannter Verlauf 13" x1="488.9" y1="68.6" x2="523.9" y2="47.1" xlink:href="#Unbenannter_Verlauf_13"/>
    <linearGradient id="Unbenannter_Verlauf_13-32" data-name="Unbenannter Verlauf 13" x1="465.2" y1="59.4" x2="480" y2="50.3" xlink:href="#Unbenannter_Verlauf_13"/>
    <linearGradient id="Unbenannter_Verlauf_13-33" data-name="Unbenannter Verlauf 13" x1="464" y1="41.8" x2="480.2" y2="31.8" xlink:href="#Unbenannter_Verlauf_13"/>
    <linearGradient id="Unbenannter_Verlauf_13-34" data-name="Unbenannter Verlauf 13" x1="464.3" y1="50.9" x2="480.2" y2="41.1" xlink:href="#Unbenannter_Verlauf_13"/>
    <linearGradient id="Unbenannter_Verlauf_13-35" data-name="Unbenannter Verlauf 13" x1="503" y1="53.6" x2="509.8" y2="49.5" xlink:href="#Unbenannter_Verlauf_13"/>
    <linearGradient id="Unbenannter_Verlauf_13-36" data-name="Unbenannter Verlauf 13" x1="500.7" y1="52.2" x2="505.7" y2="49.1" xlink:href="#Unbenannter_Verlauf_13"/>
    <linearGradient id="Unbenannter_Verlauf_13-37" data-name="Unbenannter Verlauf 13" x1="468.9" y1="65.6" x2="521.4" y2="33.2" xlink:href="#Unbenannter_Verlauf_13"/>
    <linearGradient id="Unbenannter_Verlauf_13-38" data-name="Unbenannter Verlauf 13" x1="509.4" y1="50.4" x2="527.5" y2="39.2" xlink:href="#Unbenannter_Verlauf_13"/>
    <linearGradient id="Unbenannter_Verlauf_13-39" data-name="Unbenannter Verlauf 13" x1="524.1" y1="46.6" x2="524.5" y2="46.3" xlink:href="#Unbenannter_Verlauf_13"/>
    <linearGradient id="Unbenannter_Verlauf_13-40" data-name="Unbenannter Verlauf 13" x1="503.2" y1="65.9" x2="514.5" y2="58.9" xlink:href="#Unbenannter_Verlauf_13"/>
    <linearGradient id="Unbenannter_Verlauf_13-41" data-name="Unbenannter Verlauf 13" x1="501.2" y1="48.4" x2="506.4" y2="45.1" xlink:href="#Unbenannter_Verlauf_13"/>
    <linearGradient id="Unbenannter_Verlauf_13-42" data-name="Unbenannter Verlauf 13" x1="476.6" y1="66.7" x2="526.7" y2="35.8" xlink:href="#Unbenannter_Verlauf_13"/>
  </defs>
  <g id="cardBackground">
    <path class="cls-3" d="M473,124.1H.3V0h557.5l-63.1,111.4c-4.4,7.8-12.7,12.6-21.7,12.6h0Z"/>
  </g>
  <g id="warehouse">
    <g id="Min1400" class="cls-44">
      <path class="cls-23" d="M506.7,65.8c-.3-2-1-3.9-1.9-5.6l-17.4-30.1c-3.2-5.5-9-8.9-15.3-8.9h-34.8c-6.5,0-12.3,3.4-15.5,8.9l-17.4,30.1c-3.2,5.5-3.2,12.3,0,17.7l17.4,30.2c3.2,5.5,9,8.9,15.4,8.9h34.8c4.2,0,8.2-1.5,11.4-4.2h0c-1,0-2-.2-2.9-.7-.9-.4-1.7-1.1-2.3-1.8-.7-.8-1.2-1.7-1.5-2.7-.8-2.1-.8-4.5,0-6.6.4-1,.9-1.9,1.5-2.7.6-.8,1.4-1.4,2.3-1.8.9-.4,1.9-.7,2.9-.7s2,.2,2.9.7c.9.4,1.7,1.1,2.3,1.8.7.8,1.2,1.7,1.5,2.7.2.5.3,1.1.4,1.6l1.4-2.4c0-.3-.2-.7-.3-.9-.4-1.5-1.2-2.9-2.3-4.1-2-1.5-2.6-1.9-8.6-1h-.6l-4.8-.6-1.8,15.3v.5c0,0-.2.2-.2.2,0,0,0,0,0,.2h-.1c0,.2,0,.2,0,.3h-.1c0,.2,0,.2-.2.2h0c-.1,0-.1.2-.2.2h-.2c0,.1-.2.2-.2.2h-.5l-18,.7h0c-1.1,0-2-.9-2.1-2,0-1.1.8-2.1,2-2.2l16.2-.7.2-1.6-6.8-2.7c-.2.9-1,1.5-1.9,1.6l-17.4.7h0c-1.2,0-2.1-1-2-2.2,0-1.1.9-1.9,1.9-2l15.6-.7,8.2-66.5c0-1.1,1.2-2,2.3-1.8,1.1,0,2,1.2,1.8,2.3l-7.3,59,6.9,2.4.2-2.1-3.2-.4h-.5c0,0-.2-.2-.2-.2h-.2c0-.1-.2-.3-.2-.3h-.2c0-.1-.1-.3-.1-.3h0c0,0-.1-.3-.1-.3v-.2q0-.1-.2-.2v-.6h0v-6.2h0v-.2h0v-.2h0q0-.2.1-.3l7.9-16.2,3.9-33.7c0-1.1,1.2-2,2.3-1.8s2,1.2,1.8,2.3l-2.7,22.8h0c0,0,.2-.2.2-.2h.2c0-.1.2-.1.2-.1h.3l14.8-.9h.3l4.5.3h.8c0,0,0,.2,0,.2h.2c0,.1.2.2.2.2h.1c0,.1,0,.2,0,.2v.2q.1,0,.1,0l5.2,8.9ZM463,45.6l-.2,1.6-29.7-5.1v10.2l28.7,3.3-.5,4.2-28.2-3.2v10.8l27.2,1-.5,4.2-26.8-1v10.9l25.8-.9-.5,4.2-25.3.9v10.2l24.3-2.6-.3,2.5-12.9.6c-1.4,0-2.7.7-3.6,1.7-.3.4-.6.8-.8,1.3l-8.5.9h-.2c-.2,0-.3,0-.5-.1l-6.8-1.8c-.9-.2-1.5-1.1-1.6-2v-56.1c0-.2,0-.4,0-.6h0c.1-.3.2-.5.3-.6h.1c0-.3.3-.4.4-.5.2,0,.4-.2.6-.3l6.8-1.7c.3,0,.6,0,.8,0l32.6,5.6c-.4.7-.7,1.5-.8,2.4Z"/>
      <polygon class="cls-8" points="426.3 52.7 428.9 52.3 428.9 42.3 426.3 43 426.3 52.7"/>
      <path class="cls-21" d="M482.5,89.8c5.1-.6,6.7.2,9.3,2.1,1.2,1,2.1,2.3,2.8,3.7l5.4-9.3-17.5,1.2v2.3Z"/>
      <polygon class="cls-29" points="426.3 95.7 428.9 96.4 428.9 86.4 426.3 86.1 426.3 95.7"/>
      <polygon class="cls-9" points="426.3 67.2 428.9 67.3 428.9 56.6 426.3 56.9 426.3 67.2"/>
      <polygon class="cls-43" points="426.3 81.8 428.9 82.2 428.9 71.5 426.3 71.5 426.3 81.8"/>
      <polygon class="cls-28" points="475.8 89.5 478.3 89.8 478.3 87.4 476.1 87.2 475.8 89.5"/>
      <polygon class="cls-36" points="470.3 88.7 471.6 88.9 471.9 86.7 470.3 86.6 470.3 88.7"/>
      <polygon class="cls-24" points="491.8 60 482 60.6 478.3 68.4 476.5 83 479.2 83.3 491.8 60"/>
      <path class="cls-32" d="M502.2,82.4l2.6-4.4c.2-.3.3-.6.5-.9v-5.6l-3.1-5.6v16.5Z"/>
      <polygon class="cls-26" points="502.2 82.6 502.2 82.4 502.1 82.6 502.2 82.6"/>
      <path class="cls-30" d="M485.1,102c-.2-.3-.5-.5-.8-.7s-.6-.2-.9-.2-.6.1-.9.2c-.3.2-.6.4-.8.7s-.4.6-.6,1c-.1.4-.2.9-.2,1.3s0,.9.2,1.3c0,.4.3.7.6,1,.2.3.5.5.8.7.6.3,1.3.3,1.8,0,.3-.2.6-.4.8-.7.2-.3.4-.7.6-1,.3-.8.3-1.8,0-2.6-.2-.3-.4-.6-.6-1Z"/>
      <polygon class="cls-22" points="472.7 79.8 471.4 82.5 472.4 82.6 472.7 79.8"/>
      <polygon class="cls-16" points="497.9 59.9 496.7 59.8 484.1 83.2 497.9 82.2 497.9 59.9"/>
    </g>
    <g id="Min1250" class="cls-44">
      <path class="cls-10" d="M517.9,50.1c-.2-1.6-.8-3-1.5-4.4l-13.6-23.5c-2.5-4.3-7-6.9-11.9-6.9h-27.1c-5.1,0-9.6,2.7-12.1,6.9l-13.6,23.5c-2.5,4.3-2.5,9.6,0,13.8l13.6,23.5c2.5,4.3,7,6.9,12,6.9h27.1c3.3,0,6.4-1.2,8.9-3.3h0c-.8,0-1.6-.2-2.3-.5-.7-.3-1.3-.9-1.8-1.4-.5-.6-.9-1.3-1.2-2.1-.6-1.6-.6-3.5,0-5.1.3-.8.7-1.5,1.2-2.1.5-.6,1.1-1.1,1.8-1.4.7-.3,1.5-.5,2.3-.5s1.6.2,2.3.5c.7.3,1.3.9,1.8,1.4.5.6.9,1.3,1.2,2.1.2.4.2.9.3,1.2l1.1-1.9c0-.2-.2-.5-.2-.7-.3-1.2-.9-2.3-1.8-3.2-1.6-1.2-2-1.5-6.7-.8h-.5l-3.7-.5-1.4,11.9v.4c0,0-.2.2-.2.2,0,0,0,0,0,.2h0c0,.2,0,.2,0,.2h0c0,.2,0,.2-.2.2h0c0,0,0,.2-.2.2h-.2c0,0-.2.2-.2.2h-.4l-14,.5h0c-.9,0-1.6-.7-1.6-1.6,0-.9.6-1.6,1.6-1.7l12.6-.5.2-1.2-5.3-2.1c-.2.7-.8,1.2-1.5,1.2l-13.6.5h0c-.9,0-1.6-.8-1.6-1.7,0-.9.7-1.5,1.5-1.6l12.2-.5,6.4-51.8c0-.9.9-1.6,1.8-1.4.9,0,1.6.9,1.4,1.8l-5.7,46,5.4,1.9.2-1.6-2.5-.3h-.4c0,0-.2-.2-.2-.2h-.2c0,0-.2-.2-.2-.2h-.2c0,0,0-.2,0-.2h0c0,0,0-.2,0-.2v-.2q0,0-.2-.2v-.5h0v-4.8h0v-.2h0v-.2h0q0-.2,0-.2l6.2-12.6,3-26.3c0-.9.9-1.6,1.8-1.4s1.6.9,1.4,1.8l-2.1,17.8h0c0,0,.2-.2.2-.2h.2c0,0,.2,0,.2,0h.2l11.5-.7h.2l3.5.2h.6c0,0,0,.2,0,.2h.2c0,0,.2.2.2.2h0c0,0,0,.2,0,.2v.2q0,0,0,0l4.1,6.9ZM483.8,34.4l-.2,1.2-23.1-4v8l22.4,2.6-.4,3.3-22-2.5v8.4l21.2.8-.4,3.3-20.9-.8v8.5l20.1-.7-.4,3.3-19.7.7v8l18.9-2-.2,1.9-10.1.5c-1.1,0-2.1.5-2.8,1.3-.2.3-.5.6-.6,1l-6.6.7h-.2c-.2,0-.2,0-.4,0l-5.3-1.4c-.7-.2-1.2-.9-1.2-1.6V31.1c0-.2,0-.3,0-.5h0c0-.2.2-.4.2-.5h0c0-.2.2-.3.3-.4.2,0,.3-.2.5-.2l5.3-1.3c.2,0,.5,0,.6,0l25.4,4.4c-.3.5-.5,1.2-.6,1.9Z"/>
      <polygon class="cls-39" points="455.2 39.9 457.2 39.6 457.2 31.8 455.2 32.4 455.2 39.9"/>
      <path class="cls-27" d="M499,68.9c4-.5,5.2.2,7.2,1.6.9.8,1.6,1.8,2.2,2.9l4.2-7.2-13.6.9v1.8Z"/>
      <polygon class="cls-14" points="455.2 73.5 457.2 74 457.2 66.2 455.2 66 455.2 73.5"/>
      <polygon class="cls-38" points="455.2 51.2 457.2 51.3 457.2 43 455.2 43.2 455.2 51.2"/>
      <polygon class="cls-4" points="455.2 62.6 457.2 62.9 457.2 54.6 455.2 54.6 455.2 62.6"/>
      <polygon class="cls-5" points="493.8 68.6 495.7 68.9 495.7 67 494 66.8 493.8 68.6"/>
      <polygon class="cls-17" points="489.5 68 490.5 68.2 490.7 66.4 489.5 66.4 489.5 68"/>
      <polygon class="cls-42" points="506.2 45.6 498.6 46.1 495.7 52.2 494.3 63.6 496.4 63.8 506.2 45.6"/>
      <path class="cls-1" d="M514.3,63.1l2-3.5c.2-.2.2-.5.4-.7v-4.4l-2.4-4.4v12.9Z"/>
      <polygon class="cls-34" points="514.3 63.2 514.3 63.1 514.3 63.2 514.3 63.2"/>
      <path class="cls-2" d="M501,78.4c-.2-.2-.4-.4-.6-.5s-.5-.2-.7-.2-.5,0-.7.2c-.2.2-.5.3-.6.5s-.3.5-.5.8c0,.3-.2.7-.2,1s0,.7.2,1c0,.3.2.5.5.8.2.2.4.4.6.5.5.2,1,.2,1.4,0,.2-.2.5-.3.6-.5.2-.2.3-.5.5-.8.2-.6.2-1.4,0-2-.2-.2-.3-.5-.5-.8Z"/>
      <polygon class="cls-41" points="491.4 61.1 490.3 63.2 491.1 63.2 491.4 61.1"/>
      <polygon class="cls-35" points="511 45.5 510.1 45.5 500.2 63.7 511 62.9 511 45.5"/>
    </g>
    <g id="Max1250">
      <path class="cls-18" d="M527.3,35.8c-.2-1.3-.6-2.5-1.2-3.5l-11-19c-2-3.5-5.7-5.6-9.6-5.6h-21.9c-4.1,0-7.7,2.1-9.8,5.6l-11,19c-2,3.5-2,7.7,0,11.1l11,19c2,3.5,5.7,5.6,9.7,5.6h21.9c2.6,0,5.2-.9,7.2-2.6h0c-.6,0-1.3-.1-1.8-.4-.6-.3-1.1-.7-1.4-1.1-.4-.5-.8-1.1-.9-1.7-.5-1.3-.5-2.8,0-4.2.3-.6.6-1.2.9-1.7.4-.5.9-.9,1.4-1.1.6-.3,1.2-.4,1.8-.4s1.3.1,1.8.4c.6.3,1.1.7,1.4,1.1.4.5.8,1.1.9,1.7.1.3.2.7.3,1l.9-1.5c0-.2-.1-.4-.2-.6-.3-.9-.8-1.8-1.4-2.6-1.3-.9-1.6-1.2-5.4-.6h-.4l-3-.4-1.1,9.6v.2h0c0,.1,0,.3,0,.3,0,0,0,0,0,.1h0c0,.1,0,.1,0,.2h0c0,.1,0,.1-.1.1h0c0,0,0,.1-.1.1h-.1c0,0-.1.1-.1.1h-.3l-11.3.4h0c-.7,0-1.3-.6-1.3-1.3,0-.7.5-1.3,1.3-1.4l10.2-.4v-1c.1,0-4.2-1.7-4.2-1.7-.1.6-.6.9-1.2,1l-11,.4h0c-.8,0-1.3-.6-1.3-1.4,0-.7.6-1.2,1.2-1.3l9.8-.4,5.2-41.9c0-.7.8-1.3,1.4-1.1.7,0,1.3.8,1.1,1.4l-4.6,37.2,4.3,1.5v-1.3c.1,0-1.9-.3-1.9-.3h-.3c0,0-.1-.1-.1-.1h-.1c0,0-.1-.2-.1-.2h-.1c0,0,0-.2,0-.2h0c0,0,0-.2,0-.2h0q0-.2,0-.3h0v-.3h0v-4h0v-.2h0q0-.2,0-.3l5-10.2,2.5-21.2c0-.7.8-1.3,1.4-1.1s1.3.8,1.1,1.4l-1.7,14.4h0c0,0,.1-.1.1-.1h.1c0,0,.1,0,.1,0h.2l9.3-.6h.2l2.8.2h.5c0,0,0,.1,0,.1h.1c0,0,.1.1.1.1h0c0,0,0,.1,0,.1h0v.2l3.3,5.6ZM499.8,23.1v1c-.1,0-18.8-3.2-18.8-3.2v6.4l18.1,2.1-.3,2.6-17.8-2v6.8l17.1.6-.3,2.6-16.9-.6v6.9l16.2-.6-.3,2.6-15.9.6v6.4l15.3-1.6-.2,1.6-8.1.4c-.9,0-1.7.4-2.3,1.1-.2.3-.4.5-.5.8l-5.4.6h-.1c-.1,0-.2,0-.3,0l-4.3-1.1c-.6-.1-.9-.7-1-1.3V20.4c0-.1,0-.3,0-.4h0c0-.2.1-.3.2-.4h0c0-.2.2-.3.3-.3.1,0,.3-.1.4-.2l4.3-1.1c.2,0,.4,0,.5,0l20.5,3.5c-.3.4-.4.9-.5,1.5Z"/>
      <polygon class="cls-19" points="476.6 27.6 478.3 27.3 478.3 21 476.6 21.5 476.6 27.6"/>
      <path class="cls-6" d="M512,51c3.2-.4,4.2.1,5.9,1.3.8.6,1.3,1.4,1.8,2.3l3.4-5.9-11,.8v1.4Z"/>
      <polygon class="cls-40" points="476.6 54.7 478.3 55.1 478.3 48.8 476.6 48.6 476.6 54.7"/>
      <polygon class="cls-15" points="476.6 36.7 478.3 36.8 478.3 30 476.6 30.2 476.6 36.7"/>
      <polygon class="cls-7" points="476.6 45.9 478.3 46.2 478.3 39.4 476.6 39.4 476.6 45.9"/>
      <polygon class="cls-25" points="507.8 50.8 509.4 51 509.4 49.4 508 49.3 507.8 50.8"/>
      <polygon class="cls-37" points="504.4 50.3 505.2 50.4 505.4 49 504.4 48.9 504.4 50.3"/>
      <polygon class="cls-13" points="517.9 32.2 511.7 32.6 509.4 37.5 508.3 46.7 510 46.9 517.9 32.2"/>
      <path class="cls-11" d="M524.4,46.3l1.6-2.8c.1-.2.2-.4.3-.6v-3.5l-2-3.5v10.4Z"/>
      <polygon class="cls-31" points="524.4 46.4 524.4 46.3 524.4 46.4 524.4 46.4"/>
      <path class="cls-12" d="M513.7,58.6c-.1-.2-.3-.3-.5-.4s-.4-.1-.6-.1-.4,0-.6.1c-.2.1-.4.3-.5.4s-.3.4-.4.6c0,.3-.1.6-.1.8s0,.6.1.8c0,.3.2.4.4.6.1.2.3.3.5.4.4.2.8.2,1.1,0,.2-.1.4-.3.5-.4.1-.2.3-.4.4-.6.2-.5.2-1.1,0-1.6-.1-.2-.3-.4-.4-.6Z"/>
      <polygon class="cls-33" points="505.9 44.7 505.1 46.4 505.7 46.4 505.9 44.7"/>
      <polygon class="cls-20" points="521.7 32.1 521 32.1 513.1 46.8 521.7 46.2 521.7 32.1"/>
    </g>
  </g>
</svg>