<?xml version="1.0" encoding="UTF-8"?>
<svg xmlns="http://www.w3.org/2000/svg" version="1.1" xmlns:xlink="http://www.w3.org/1999/xlink" viewBox="0 0 613 137">
  <defs>
    <style>
      .cls-1 {
        fill: url(#Unbenannter_Verlauf_7-13);
      }

      .cls-1, .cls-2, .cls-3, .cls-4, .cls-5, .cls-6, .cls-7, .cls-8, .cls-9, .cls-10, .cls-11, .cls-12, .cls-13, .cls-14, .cls-15, .cls-16, .cls-17, .cls-18, .cls-19, .cls-20, .cls-21, .cls-22, .cls-23, .cls-24, .cls-25, .cls-26, .cls-27, .cls-28, .cls-29, .cls-30, .cls-31, .cls-32, .cls-33, .cls-34, .cls-35, .cls-36, .cls-37, .cls-38, .cls-39, .cls-40, .cls-41, .cls-42, .cls-43, .cls-44, .cls-45, .cls-46, .cls-47, .cls-48, .cls-49, .cls-50, .cls-51, .cls-52, .cls-53, .cls-54, .cls-55, .cls-56, .cls-57, .cls-58, .cls-59, .cls-60, .cls-61, .cls-62, .cls-63, .cls-64, .cls-65, .cls-66, .cls-67, .cls-68, .cls-69, .cls-70, .cls-71, .cls-72, .cls-73, .cls-74, .cls-75, .cls-76, .cls-77, .cls-78, .cls-79, .cls-80, .cls-81, .cls-82, .cls-83, .cls-84, .cls-85 {
        stroke-width: 0px;
      }

      .cls-2 {
        fill: url(#Unbenannter_Verlauf_7-17);
      }

      .cls-3 {
        fill: url(#Unbenannter_Verlauf_13-24);
      }

      .cls-4 {
        fill: url(#Unbenannter_Verlauf_7-10);
      }

      .cls-5 {
        fill: url(#Unbenannter_Verlauf_7-36);
      }

      .cls-6 {
        fill: url(#Unbenannter_Verlauf_13-26);
      }

      .cls-7 {
        isolation: isolate;
        opacity: .8;
      }

      .cls-8 {
        fill: url(#Unbenannter_Verlauf_13-20);
      }

      .cls-9 {
        fill: url(#Unbenannter_Verlauf_13-21);
      }

      .cls-10 {
        fill: url(#Unbenannter_Verlauf_13-31);
      }

      .cls-11 {
        fill: url(#Unbenannter_Verlauf_13-34);
      }

      .cls-12 {
        fill: url(#Unbenannter_Verlauf_7-41);
      }

      .cls-13 {
        fill: url(#Unbenannter_Verlauf_13-2);
      }

      .cls-14 {
        fill: url(#Unbenannter_Verlauf_13-5);
      }

      .cls-15 {
        fill: url(#Unbenannter_Verlauf_13-15);
      }

      .cls-16 {
        fill: url(#Unbenannter_Verlauf_7-3);
      }

      .cls-17 {
        fill: url(#Unbenannter_Verlauf_7-14);
      }

      .cls-18 {
        fill: url(#Unbenannter_Verlauf_7-37);
      }

      .cls-19 {
        fill: url(#Unbenannter_Verlauf_7-23);
      }

      .cls-20 {
        fill: url(#Unbenannter_Verlauf_13-38);
      }

      .cls-21 {
        fill: url(#Unbenannter_Verlauf_7-18);
      }

      .cls-22 {
        fill: url(#Unbenannter_Verlauf_7-26);
      }

      .cls-23 {
        fill: url(#Unbenannter_Verlauf_7-32);
      }

      .cls-24 {
        fill: url(#Unbenannter_Verlauf_7-20);
      }

      .cls-25 {
        fill: url(#Unbenannter_Verlauf_13-40);
      }

      .cls-26 {
        fill: url(#Unbenannter_Verlauf_13-37);
      }

      .cls-27 {
        fill: url(#Unbenannter_Verlauf_7-34);
      }

      .cls-28 {
        fill: url(#Unbenannter_Verlauf_13-18);
      }

      .cls-29 {
        fill: url(#Unbenannter_Verlauf_7-31);
      }

      .cls-30 {
        fill: url(#Unbenannter_Verlauf_7-42);
      }

      .cls-31 {
        fill: url(#Unbenannter_Verlauf_13-33);
      }

      .cls-32 {
        fill: url(#Unbenannter_Verlauf_7-4);
      }

      .cls-33 {
        fill: url(#Unbenannter_Verlauf_7-33);
      }

      .cls-34 {
        fill: url(#Unbenannter_Verlauf_13-14);
      }

      .cls-35 {
        fill: url(#Unbenannter_Verlauf_7-39);
      }

      .cls-36 {
        fill: url(#Unbenannter_Verlauf_13-22);
      }

      .cls-37 {
        fill: url(#Unbenannter_Verlauf_13-29);
      }

      .cls-38 {
        fill: url(#Unbenannter_Verlauf_13-30);
      }

      .cls-39 {
        fill: url(#Unbenannter_Verlauf_7-27);
      }

      .cls-40 {
        fill: url(#Unbenannter_Verlauf_13-42);
      }

      .cls-41 {
        fill: url(#Unbenannter_Verlauf_13-3);
      }

      .cls-42 {
        fill: url(#Unbenannter_Verlauf_7-22);
      }

      .cls-43 {
        fill: url(#Unbenannter_Verlauf_13-13);
      }

      .cls-44 {
        fill: url(#Unbenannter_Verlauf_13);
      }

      .cls-45 {
        fill: url(#Unbenannter_Verlauf_13-9);
      }

      .cls-46 {
        fill: url(#Unbenannter_Verlauf_7-24);
      }

      .cls-47 {
        fill: url(#Unbenannter_Verlauf_7-5);
      }

      .cls-48 {
        fill: url(#Unbenannter_Verlauf_13-35);
      }

      .cls-49 {
        fill: url(#Unbenannter_Verlauf_13-11);
      }

      .cls-50 {
        fill: url(#Unbenannter_Verlauf_13-17);
      }

      .cls-51 {
        fill: url(#Unbenannter_Verlauf_7-35);
      }

      .cls-52 {
        fill: url(#Unbenannter_Verlauf_7-40);
      }

      .cls-53 {
        fill: url(#Unbenannter_Verlauf_13-7);
      }

      .cls-54 {
        fill: url(#Unbenannter_Verlauf_7-7);
      }

      .cls-55 {
        fill: url(#Unbenannter_Verlauf_7-2);
      }

      .cls-56 {
        fill: url(#Unbenannter_Verlauf_13-4);
      }

      .cls-57 {
        fill: url(#Unbenannter_Verlauf_7-15);
      }

      .cls-58 {
        fill: url(#Unbenannter_Verlauf_13-12);
      }

      .cls-59 {
        fill: url(#Unbenannter_Verlauf_13-39);
      }

      .cls-60 {
        fill: url(#Unbenannter_Verlauf_13-10);
      }

      .cls-61 {
        fill: url(#Unbenannter_Verlauf_13-41);
      }

      .cls-62 {
        fill: url(#Unbenannter_Verlauf_7-9);
      }

      .cls-63 {
        fill: url(#Unbenannter_Verlauf_7-38);
      }

      .cls-86 {
        display: none;
      }

      .cls-64 {
        fill: url(#Unbenannter_Verlauf_13-25);
      }

      .cls-65 {
        fill: url(#Unbenannter_Verlauf_13-28);
      }

      .cls-66 {
        fill: url(#Unbenannter_Verlauf_7-16);
      }

      .cls-67 {
        fill: url(#Unbenannter_Verlauf_7-30);
      }

      .cls-68 {
        fill: url(#Unbenannter_Verlauf_13-8);
      }

      .cls-69 {
        fill: url(#Unbenannter_Verlauf_7-11);
      }

      .cls-70 {
        fill: url(#Unbenannter_Verlauf_13-36);
      }

      .cls-71 {
        fill: url(#Unbenannter_Verlauf_13-19);
      }

      .cls-72 {
        fill: url(#Unbenannter_Verlauf_7-29);
      }

      .cls-73 {
        fill: url(#Unbenannter_Verlauf_7-6);
      }

      .cls-74 {
        fill: url(#Unbenannter_Verlauf_13-16);
      }

      .cls-75 {
        fill: url(#Unbenannter_Verlauf_13-32);
      }

      .cls-76 {
        fill: url(#Unbenannter_Verlauf_7-21);
      }

      .cls-77 {
        fill: url(#Unbenannter_Verlauf_7-28);
      }

      .cls-78 {
        fill: url(#Unbenannter_Verlauf_7-19);
      }

      .cls-79 {
        fill: url(#Unbenannter_Verlauf_7-12);
      }

      .cls-80 {
        fill: url(#Unbenannter_Verlauf_13-27);
      }

      .cls-81 {
        fill: url(#Unbenannter_Verlauf_7-8);
      }

      .cls-82 {
        fill: url(#Unbenannter_Verlauf_13-23);
      }

      .cls-83 {
        fill: url(#Unbenannter_Verlauf_13-6);
      }

      .cls-84 {
        fill: url(#Unbenannter_Verlauf_7-25);
      }

      .cls-85 {
        fill: url(#Unbenannter_Verlauf_7);
      }
    </style>
    <linearGradient id="Unbenannter_Verlauf_13" data-name="Unbenannter Verlauf 13" x1="187.1" y1="233.9" x2="508.3" y2="36" gradientUnits="userSpaceOnUse">
      <stop offset="0" stop-color="#41b6e6"/>
      <stop offset="1" stop-color="#005eb8"/>
    </linearGradient>
    <linearGradient id="Unbenannter_Verlauf_13-2" data-name="Unbenannter Verlauf 13" x1="406.5" y1="60.7" x2="431.9" y2="45" xlink:href="#Unbenannter_Verlauf_13"/>
    <linearGradient id="Unbenannter_Verlauf_13-3" data-name="Unbenannter Verlauf 13" x1="445.8" y1="117.9" x2="501.4" y2="83.7" xlink:href="#Unbenannter_Verlauf_13"/>
    <linearGradient id="Unbenannter_Verlauf_13-4" data-name="Unbenannter Verlauf 13" x1="408.1" y1="103.3" x2="431.6" y2="88.8" xlink:href="#Unbenannter_Verlauf_13"/>
    <linearGradient id="Unbenannter_Verlauf_13-5" data-name="Unbenannter Verlauf 13" x1="406.2" y1="75.3" x2="432" y2="59.4" xlink:href="#Unbenannter_Verlauf_13"/>
    <linearGradient id="Unbenannter_Verlauf_13-6" data-name="Unbenannter Verlauf 13" x1="406.6" y1="89.8" x2="431.9" y2="74.2" xlink:href="#Unbenannter_Verlauf_13"/>
    <linearGradient id="Unbenannter_Verlauf_13-7" data-name="Unbenannter Verlauf 13" x1="468.2" y1="94.1" x2="478.9" y2="87.5" xlink:href="#Unbenannter_Verlauf_13"/>
    <linearGradient id="Unbenannter_Verlauf_13-8" data-name="Unbenannter Verlauf 13" x1="464.4" y1="91.8" x2="472.4" y2="86.9" xlink:href="#Unbenannter_Verlauf_13"/>
    <linearGradient id="Unbenannter_Verlauf_13-9" data-name="Unbenannter Verlauf 13" x1="414" y1="113" x2="497.3" y2="61.7" xlink:href="#Unbenannter_Verlauf_13"/>
    <linearGradient id="Unbenannter_Verlauf_13-10" data-name="Unbenannter Verlauf 13" x1="478.2" y1="88.9" x2="507" y2="71.2" xlink:href="#Unbenannter_Verlauf_13"/>
    <linearGradient id="Unbenannter_Verlauf_13-11" data-name="Unbenannter Verlauf 13" x1="501.7" y1="82.9" x2="502.3" y2="82.5" xlink:href="#Unbenannter_Verlauf_13"/>
    <linearGradient id="Unbenannter_Verlauf_13-12" data-name="Unbenannter Verlauf 13" x1="468.5" y1="113.5" x2="486.4" y2="102.5" xlink:href="#Unbenannter_Verlauf_13"/>
    <linearGradient id="Unbenannter_Verlauf_13-13" data-name="Unbenannter Verlauf 13" x1="465.2" y1="85.7" x2="473.6" y2="80.6" xlink:href="#Unbenannter_Verlauf_13"/>
    <linearGradient id="Unbenannter_Verlauf_13-14" data-name="Unbenannter Verlauf 13" x1="426.2" y1="114.8" x2="505.8" y2="65.8" xlink:href="#Unbenannter_Verlauf_13"/>
    <linearGradient id="Unbenannter_Verlauf_13-15" data-name="Unbenannter Verlauf 13" x1="268.7" y1="181.2" x2="519.1" y2="26.9" xlink:href="#Unbenannter_Verlauf_13"/>
    <linearGradient id="Unbenannter_Verlauf_13-16" data-name="Unbenannter Verlauf 13" x1="439.7" y1="46.1" x2="459.6" y2="33.9" xlink:href="#Unbenannter_Verlauf_13"/>
    <linearGradient id="Unbenannter_Verlauf_13-17" data-name="Unbenannter Verlauf 13" x1="470.4" y1="90.7" x2="513.7" y2="64.1" xlink:href="#Unbenannter_Verlauf_13"/>
    <linearGradient id="Unbenannter_Verlauf_13-18" data-name="Unbenannter Verlauf 13" x1="441" y1="79.4" x2="459.3" y2="68.1" xlink:href="#Unbenannter_Verlauf_13"/>
    <linearGradient id="Unbenannter_Verlauf_13-19" data-name="Unbenannter Verlauf 13" x1="439.5" y1="57.5" x2="459.6" y2="45.1" xlink:href="#Unbenannter_Verlauf_13"/>
    <linearGradient id="Unbenannter_Verlauf_13-20" data-name="Unbenannter Verlauf 13" x1="439.9" y1="68.8" x2="459.6" y2="56.7" xlink:href="#Unbenannter_Verlauf_13"/>
    <linearGradient id="Unbenannter_Verlauf_13-21" data-name="Unbenannter Verlauf 13" x1="487.8" y1="72.2" x2="496.2" y2="67" xlink:href="#Unbenannter_Verlauf_13"/>
    <linearGradient id="Unbenannter_Verlauf_13-22" data-name="Unbenannter Verlauf 13" x1="484.9" y1="70.4" x2="491.1" y2="66.6" xlink:href="#Unbenannter_Verlauf_13"/>
    <linearGradient id="Unbenannter_Verlauf_13-23" data-name="Unbenannter Verlauf 13" x1="445.6" y1="86.9" x2="510.5" y2="46.9" xlink:href="#Unbenannter_Verlauf_13"/>
    <linearGradient id="Unbenannter_Verlauf_13-24" data-name="Unbenannter Verlauf 13" x1="495.7" y1="68.2" x2="518.1" y2="54.4" xlink:href="#Unbenannter_Verlauf_13"/>
    <linearGradient id="Unbenannter_Verlauf_13-25" data-name="Unbenannter Verlauf 13" x1="513.9" y1="63.4" x2="514.4" y2="63.1" xlink:href="#Unbenannter_Verlauf_13"/>
    <linearGradient id="Unbenannter_Verlauf_13-26" data-name="Unbenannter Verlauf 13" x1="488.1" y1="87.3" x2="502" y2="78.7" xlink:href="#Unbenannter_Verlauf_13"/>
    <linearGradient id="Unbenannter_Verlauf_13-27" data-name="Unbenannter Verlauf 13" x1="485.5" y1="65.7" x2="492.1" y2="61.6" xlink:href="#Unbenannter_Verlauf_13"/>
    <linearGradient id="Unbenannter_Verlauf_13-28" data-name="Unbenannter Verlauf 13" x1="455.1" y1="88.3" x2="517.1" y2="50.1" xlink:href="#Unbenannter_Verlauf_13"/>
    <linearGradient id="Unbenannter_Verlauf_13-29" data-name="Unbenannter Verlauf 13" x1="326" y1="141.7" x2="528.3" y2="17.1" xlink:href="#Unbenannter_Verlauf_13"/>
    <linearGradient id="Unbenannter_Verlauf_13-30" data-name="Unbenannter Verlauf 13" x1="464.2" y1="32.6" x2="480.2" y2="22.7" xlink:href="#Unbenannter_Verlauf_13"/>
    <linearGradient id="Unbenannter_Verlauf_13-31" data-name="Unbenannter Verlauf 13" x1="488.9" y1="68.6" x2="523.9" y2="47.1" xlink:href="#Unbenannter_Verlauf_13"/>
    <linearGradient id="Unbenannter_Verlauf_13-32" data-name="Unbenannter Verlauf 13" x1="465.2" y1="59.4" x2="480" y2="50.3" xlink:href="#Unbenannter_Verlauf_13"/>
    <linearGradient id="Unbenannter_Verlauf_13-33" data-name="Unbenannter Verlauf 13" x1="464" y1="41.8" x2="480.2" y2="31.8" xlink:href="#Unbenannter_Verlauf_13"/>
    <linearGradient id="Unbenannter_Verlauf_13-34" data-name="Unbenannter Verlauf 13" x1="464.3" y1="50.9" x2="480.2" y2="41.1" xlink:href="#Unbenannter_Verlauf_13"/>
    <linearGradient id="Unbenannter_Verlauf_13-35" data-name="Unbenannter Verlauf 13" x1="503" y1="53.6" x2="509.8" y2="49.5" xlink:href="#Unbenannter_Verlauf_13"/>
    <linearGradient id="Unbenannter_Verlauf_13-36" data-name="Unbenannter Verlauf 13" x1="500.7" y1="52.2" x2="505.7" y2="49.1" xlink:href="#Unbenannter_Verlauf_13"/>
    <linearGradient id="Unbenannter_Verlauf_13-37" data-name="Unbenannter Verlauf 13" x1="468.9" y1="65.6" x2="521.4" y2="33.2" xlink:href="#Unbenannter_Verlauf_13"/>
    <linearGradient id="Unbenannter_Verlauf_13-38" data-name="Unbenannter Verlauf 13" x1="509.4" y1="50.4" x2="527.5" y2="39.2" xlink:href="#Unbenannter_Verlauf_13"/>
    <linearGradient id="Unbenannter_Verlauf_13-39" data-name="Unbenannter Verlauf 13" x1="524.1" y1="46.6" x2="524.5" y2="46.3" xlink:href="#Unbenannter_Verlauf_13"/>
    <linearGradient id="Unbenannter_Verlauf_13-40" data-name="Unbenannter Verlauf 13" x1="503.2" y1="65.9" x2="514.5" y2="58.9" xlink:href="#Unbenannter_Verlauf_13"/>
    <linearGradient id="Unbenannter_Verlauf_13-41" data-name="Unbenannter Verlauf 13" x1="501.2" y1="48.4" x2="506.4" y2="45.1" xlink:href="#Unbenannter_Verlauf_13"/>
    <linearGradient id="Unbenannter_Verlauf_13-42" data-name="Unbenannter Verlauf 13" x1="476.6" y1="66.7" x2="526.7" y2="35.8" xlink:href="#Unbenannter_Verlauf_13"/>
    <linearGradient id="Unbenannter_Verlauf_7" data-name="Unbenannter Verlauf 7" x1="412.4" y1="104.5" x2="504.2" y2="76" gradientUnits="userSpaceOnUse">
      <stop offset="0" stop-color="#28abba"/>
      <stop offset="1" stop-color="#076b79"/>
    </linearGradient>
    <linearGradient id="Unbenannter_Verlauf_7-2" data-name="Unbenannter Verlauf 7" x1="411.3" y1="100.8" x2="503" y2="72.3" xlink:href="#Unbenannter_Verlauf_7"/>
    <linearGradient id="Unbenannter_Verlauf_7-3" data-name="Unbenannter Verlauf 7" x1="410.5" y1="98.5" x2="502.3" y2="69.9" xlink:href="#Unbenannter_Verlauf_7"/>
    <linearGradient id="Unbenannter_Verlauf_7-4" data-name="Unbenannter Verlauf 7" x1="413.9" y1="109.4" x2="505.7" y2="80.8" xlink:href="#Unbenannter_Verlauf_7"/>
    <linearGradient id="Unbenannter_Verlauf_7-5" data-name="Unbenannter Verlauf 7" x1="411.6" y1="101.7" x2="503.3" y2="73.2" xlink:href="#Unbenannter_Verlauf_7"/>
    <linearGradient id="Unbenannter_Verlauf_7-6" data-name="Unbenannter Verlauf 7" x1="404.4" y1="78.7" x2="496.1" y2="50.2" xlink:href="#Unbenannter_Verlauf_7"/>
    <linearGradient id="Unbenannter_Verlauf_7-7" data-name="Unbenannter Verlauf 7" x1="400.9" y1="67.3" x2="492.6" y2="38.8" xlink:href="#Unbenannter_Verlauf_7"/>
    <linearGradient id="Unbenannter_Verlauf_7-8" data-name="Unbenannter Verlauf 7" x1="409.1" y1="93.8" x2="500.8" y2="65.2" xlink:href="#Unbenannter_Verlauf_7"/>
    <linearGradient id="Unbenannter_Verlauf_7-9" data-name="Unbenannter Verlauf 7" x1="407.9" y1="90.1" x2="499.7" y2="61.6" xlink:href="#Unbenannter_Verlauf_7"/>
    <linearGradient id="Unbenannter_Verlauf_7-10" data-name="Unbenannter Verlauf 7" x1="414.8" y1="112.2" x2="506.6" y2="83.6" xlink:href="#Unbenannter_Verlauf_7"/>
    <linearGradient id="Unbenannter_Verlauf_7-11" data-name="Unbenannter Verlauf 7" x1="410.2" y1="97.5" x2="502" y2="69" xlink:href="#Unbenannter_Verlauf_7"/>
    <linearGradient id="Unbenannter_Verlauf_7-12" data-name="Unbenannter Verlauf 7" x1="406.1" y1="84.3" x2="497.9" y2="55.8" xlink:href="#Unbenannter_Verlauf_7"/>
    <linearGradient id="Unbenannter_Verlauf_7-13" data-name="Unbenannter Verlauf 7" x1="417.1" y1="119.4" x2="508.8" y2="90.9" xlink:href="#Unbenannter_Verlauf_7"/>
    <linearGradient id="Unbenannter_Verlauf_7-14" data-name="Unbenannter Verlauf 7" x1="408" y1="90.2" x2="499.7" y2="61.7" xlink:href="#Unbenannter_Verlauf_7"/>
    <linearGradient id="Unbenannter_Verlauf_7-15" data-name="Unbenannter Verlauf 7" x1="444" y1="80.3" x2="515.3" y2="58.1" xlink:href="#Unbenannter_Verlauf_7"/>
    <linearGradient id="Unbenannter_Verlauf_7-16" data-name="Unbenannter Verlauf 7" x1="443.2" y1="77.4" x2="514.4" y2="55.2" xlink:href="#Unbenannter_Verlauf_7"/>
    <linearGradient id="Unbenannter_Verlauf_7-17" data-name="Unbenannter Verlauf 7" x1="442.6" y1="75.5" x2="513.8" y2="53.4" xlink:href="#Unbenannter_Verlauf_7"/>
    <linearGradient id="Unbenannter_Verlauf_7-18" data-name="Unbenannter Verlauf 7" x1="445.2" y1="84" x2="516.5" y2="61.9" xlink:href="#Unbenannter_Verlauf_7"/>
    <linearGradient id="Unbenannter_Verlauf_7-19" data-name="Unbenannter Verlauf 7" x1="443.4" y1="78.1" x2="514.6" y2="55.9" xlink:href="#Unbenannter_Verlauf_7"/>
    <linearGradient id="Unbenannter_Verlauf_7-20" data-name="Unbenannter Verlauf 7" x1="437.8" y1="60.1" x2="509.1" y2="38" xlink:href="#Unbenannter_Verlauf_7"/>
    <linearGradient id="Unbenannter_Verlauf_7-21" data-name="Unbenannter Verlauf 7" x1="435.1" y1="51.3" x2="506.3" y2="29.1" xlink:href="#Unbenannter_Verlauf_7"/>
    <linearGradient id="Unbenannter_Verlauf_7-22" data-name="Unbenannter Verlauf 7" x1="441.5" y1="71.9" x2="512.7" y2="49.7" xlink:href="#Unbenannter_Verlauf_7"/>
    <linearGradient id="Unbenannter_Verlauf_7-23" data-name="Unbenannter Verlauf 7" x1="440.6" y1="69" x2="511.8" y2="46.8" xlink:href="#Unbenannter_Verlauf_7"/>
    <linearGradient id="Unbenannter_Verlauf_7-24" data-name="Unbenannter Verlauf 7" x1="445.9" y1="86.2" x2="517.1" y2="64" xlink:href="#Unbenannter_Verlauf_7"/>
    <linearGradient id="Unbenannter_Verlauf_7-25" data-name="Unbenannter Verlauf 7" x1="442.3" y1="74.8" x2="513.7" y2="52.6" xlink:href="#Unbenannter_Verlauf_7"/>
    <linearGradient id="Unbenannter_Verlauf_7-26" data-name="Unbenannter Verlauf 7" x1="439.2" y1="64.5" x2="510.5" y2="42.3" xlink:href="#Unbenannter_Verlauf_7"/>
    <linearGradient id="Unbenannter_Verlauf_7-27" data-name="Unbenannter Verlauf 7" x1="447.6" y1="91.9" x2="518.9" y2="69.7" xlink:href="#Unbenannter_Verlauf_7"/>
    <linearGradient id="Unbenannter_Verlauf_7-28" data-name="Unbenannter Verlauf 7" x1="440.6" y1="69.1" x2="511.8" y2="47" xlink:href="#Unbenannter_Verlauf_7"/>
    <linearGradient id="Unbenannter_Verlauf_7-29" data-name="Unbenannter Verlauf 7" x1="467.6" y1="60.2" x2="525.2" y2="42.3" xlink:href="#Unbenannter_Verlauf_7"/>
    <linearGradient id="Unbenannter_Verlauf_7-30" data-name="Unbenannter Verlauf 7" x1="466.9" y1="57.8" x2="524.5" y2="39.9" xlink:href="#Unbenannter_Verlauf_7"/>
    <linearGradient id="Unbenannter_Verlauf_7-31" data-name="Unbenannter Verlauf 7" x1="466.5" y1="56.4" x2="524" y2="38.5" xlink:href="#Unbenannter_Verlauf_7"/>
    <linearGradient id="Unbenannter_Verlauf_7-32" data-name="Unbenannter Verlauf 7" x1="468.6" y1="63.2" x2="526.2" y2="45.3" xlink:href="#Unbenannter_Verlauf_7"/>
    <linearGradient id="Unbenannter_Verlauf_7-33" data-name="Unbenannter Verlauf 7" x1="467.1" y1="58.4" x2="524.7" y2="40.5" xlink:href="#Unbenannter_Verlauf_7"/>
    <linearGradient id="Unbenannter_Verlauf_7-34" data-name="Unbenannter Verlauf 7" x1="462.6" y1="43.9" x2="520.2" y2="26" xlink:href="#Unbenannter_Verlauf_7"/>
    <linearGradient id="Unbenannter_Verlauf_7-35" data-name="Unbenannter Verlauf 7" x1="460.4" y1="36.7" x2="518" y2="18.8" xlink:href="#Unbenannter_Verlauf_7"/>
    <linearGradient id="Unbenannter_Verlauf_7-36" data-name="Unbenannter Verlauf 7" x1="465.6" y1="53.4" x2="523.1" y2="35.5" xlink:href="#Unbenannter_Verlauf_7"/>
    <linearGradient id="Unbenannter_Verlauf_7-37" data-name="Unbenannter Verlauf 7" x1="464.8" y1="51.1" x2="522.4" y2="33.2" xlink:href="#Unbenannter_Verlauf_7"/>
    <linearGradient id="Unbenannter_Verlauf_7-38" data-name="Unbenannter Verlauf 7" x1="469.2" y1="65" x2="526.7" y2="47.1" xlink:href="#Unbenannter_Verlauf_7"/>
    <linearGradient id="Unbenannter_Verlauf_7-39" data-name="Unbenannter Verlauf 7" x1="466.2" y1="55.8" x2="523.9" y2="37.8" xlink:href="#Unbenannter_Verlauf_7"/>
    <linearGradient id="Unbenannter_Verlauf_7-40" data-name="Unbenannter Verlauf 7" x1="463.7" y1="47.4" x2="521.3" y2="29.5" xlink:href="#Unbenannter_Verlauf_7"/>
    <linearGradient id="Unbenannter_Verlauf_7-41" data-name="Unbenannter Verlauf 7" x1="470.5" y1="69.6" x2="528.1" y2="51.7" xlink:href="#Unbenannter_Verlauf_7"/>
    <linearGradient id="Unbenannter_Verlauf_7-42" data-name="Unbenannter Verlauf 7" x1="464.9" y1="51.2" x2="522.4" y2="33.3" xlink:href="#Unbenannter_Verlauf_7"/>
  </defs>
  <g id="cardBackground">
    <path class="cls-7" d="M473,124.1H.3V0h557.5l-63.1,111.4c-4.4,7.8-12.7,12.6-21.7,12.6h0Z"/>
  </g>
  <g id="warehouse" class="cls-86">
    <g id="Min1400" class="cls-86">
      <path class="cls-44" d="M506.7,65.8c-.3-2-1-3.9-1.9-5.6l-17.4-30.1c-3.2-5.5-9-8.9-15.3-8.9h-34.8c-6.5,0-12.3,3.4-15.5,8.9l-17.4,30.1c-3.2,5.5-3.2,12.3,0,17.7l17.4,30.2c3.2,5.5,9,8.9,15.4,8.9h34.8c4.2,0,8.2-1.5,11.4-4.2h0c-1,0-2-.2-2.9-.7-.9-.4-1.7-1.1-2.3-1.8-.7-.8-1.2-1.7-1.5-2.7-.8-2.1-.8-4.5,0-6.6.4-1,.9-1.9,1.5-2.7.6-.8,1.4-1.4,2.3-1.8.9-.4,1.9-.7,2.9-.7s2,.2,2.9.7c.9.4,1.7,1.1,2.3,1.8.7.8,1.2,1.7,1.5,2.7.2.5.3,1.1.4,1.6l1.4-2.4c0-.3-.2-.7-.3-.9-.4-1.5-1.2-2.9-2.3-4.1-2-1.5-2.6-1.9-8.6-1h-.6l-4.8-.6-1.8,15.3v.5c0,0-.2.2-.2.2,0,0,0,0,0,.2h-.1c0,.2,0,.2,0,.3h-.1c0,.2,0,.2-.2.2h0c-.1,0-.1.2-.2.2h-.2c0,.1-.2.2-.2.2h-.5l-18,.7h0c-1.1,0-2-.9-2.1-2,0-1.1.8-2.1,2-2.2l16.2-.7.2-1.6-6.8-2.7c-.2.9-1,1.5-1.9,1.6l-17.4.7h0c-1.2,0-2.1-1-2-2.2,0-1.1.9-1.9,1.9-2l15.6-.7,8.2-66.5c0-1.1,1.2-2,2.3-1.8,1.1,0,2,1.2,1.8,2.3l-7.3,59,6.9,2.4.2-2.1-3.2-.4h-.5c0,0-.2-.2-.2-.2h-.2c0-.1-.2-.3-.2-.3h-.2c0-.1-.1-.3-.1-.3h0c0,0-.1-.3-.1-.3v-.2q0-.1-.2-.2v-.6h0v-6.2h0v-.2h0v-.2h0q0-.2.1-.3l7.9-16.2,3.9-33.7c0-1.1,1.2-2,2.3-1.8s2,1.2,1.8,2.3l-2.7,22.8h0c0,0,.2-.2.2-.2h.2c0-.1.2-.1.2-.1h.3l14.8-.9h.3l4.5.3h.8c0,0,0,.2,0,.2h.2c0,.1.2.2.2.2h.1c0,.1,0,.2,0,.2v.2q.1,0,.1,0l5.2,8.9ZM463,45.6l-.2,1.6-29.7-5.1v10.2l28.7,3.3-.5,4.2-28.2-3.2v10.8l27.2,1-.5,4.2-26.8-1v10.9l25.8-.9-.5,4.2-25.3.9v10.2l24.3-2.6-.3,2.5-12.9.6c-1.4,0-2.7.7-3.6,1.7-.3.4-.6.8-.8,1.3l-8.5.9h-.2c-.2,0-.3,0-.5-.1l-6.8-1.8c-.9-.2-1.5-1.1-1.6-2v-56.1c0-.2,0-.4,0-.6h0c.1-.3.2-.5.3-.6h.1c0-.3.3-.4.4-.5.2,0,.4-.2.6-.3l6.8-1.7c.3,0,.6,0,.8,0l32.6,5.6c-.4.7-.7,1.5-.8,2.4Z"/>
      <polygon class="cls-13" points="426.3 52.7 428.9 52.3 428.9 42.3 426.3 43 426.3 52.7"/>
      <path class="cls-41" d="M482.5,89.8c5.1-.6,6.7.2,9.3,2.1,1.2,1,2.1,2.3,2.8,3.7l5.4-9.3-17.5,1.2v2.3Z"/>
      <polygon class="cls-56" points="426.3 95.7 428.9 96.4 428.9 86.4 426.3 86.1 426.3 95.7"/>
      <polygon class="cls-14" points="426.3 67.2 428.9 67.3 428.9 56.6 426.3 56.9 426.3 67.2"/>
      <polygon class="cls-83" points="426.3 81.8 428.9 82.2 428.9 71.5 426.3 71.5 426.3 81.8"/>
      <polygon class="cls-53" points="475.8 89.5 478.3 89.8 478.3 87.4 476.1 87.2 475.8 89.5"/>
      <polygon class="cls-68" points="470.3 88.7 471.6 88.9 471.9 86.7 470.3 86.6 470.3 88.7"/>
      <polygon class="cls-45" points="491.8 60 482 60.6 478.3 68.4 476.5 83 479.2 83.3 491.8 60"/>
      <path class="cls-60" d="M502.2,82.4l2.6-4.4c.2-.3.3-.6.5-.9v-5.6l-3.1-5.6v16.5Z"/>
      <polygon class="cls-49" points="502.2 82.6 502.2 82.4 502.1 82.6 502.2 82.6"/>
      <path class="cls-58" d="M485.1,102c-.2-.3-.5-.5-.8-.7s-.6-.2-.9-.2-.6.1-.9.2c-.3.2-.6.4-.8.7s-.4.6-.6,1c-.1.4-.2.9-.2,1.3s0,.9.2,1.3c0,.4.3.7.6,1,.2.3.5.5.8.7.6.3,1.3.3,1.8,0,.3-.2.6-.4.8-.7.2-.3.4-.7.6-1,.3-.8.3-1.8,0-2.6-.2-.3-.4-.6-.6-1Z"/>
      <polygon class="cls-43" points="472.7 79.8 471.4 82.5 472.4 82.6 472.7 79.8"/>
      <polygon class="cls-34" points="497.9 59.9 496.7 59.8 484.1 83.2 497.9 82.2 497.9 59.9"/>
    </g>
    <g id="Min1250" class="cls-86">
      <path class="cls-15" d="M517.9,50.1c-.2-1.6-.8-3-1.5-4.4l-13.6-23.5c-2.5-4.3-7-6.9-11.9-6.9h-27.1c-5.1,0-9.6,2.7-12.1,6.9l-13.6,23.5c-2.5,4.3-2.5,9.6,0,13.8l13.6,23.5c2.5,4.3,7,6.9,12,6.9h27.1c3.3,0,6.4-1.2,8.9-3.3h0c-.8,0-1.6-.2-2.3-.5-.7-.3-1.3-.9-1.8-1.4-.5-.6-.9-1.3-1.2-2.1-.6-1.6-.6-3.5,0-5.1.3-.8.7-1.5,1.2-2.1.5-.6,1.1-1.1,1.8-1.4.7-.3,1.5-.5,2.3-.5s1.6.2,2.3.5c.7.3,1.3.9,1.8,1.4.5.6.9,1.3,1.2,2.1.2.4.2.9.3,1.2l1.1-1.9c0-.2-.2-.5-.2-.7-.3-1.2-.9-2.3-1.8-3.2-1.6-1.2-2-1.5-6.7-.8h-.5l-3.7-.5-1.4,11.9v.4c0,0-.2.2-.2.2,0,0,0,0,0,.2h0c0,.2,0,.2,0,.2h0c0,.2,0,.2-.2.2h0c0,0,0,.2-.2.2h-.2c0,0-.2.2-.2.2h-.4l-14,.5h0c-.9,0-1.6-.7-1.6-1.6,0-.9.6-1.6,1.6-1.7l12.6-.5.2-1.2-5.3-2.1c-.2.7-.8,1.2-1.5,1.2l-13.6.5h0c-.9,0-1.6-.8-1.6-1.7,0-.9.7-1.5,1.5-1.6l12.2-.5,6.4-51.8c0-.9.9-1.6,1.8-1.4.9,0,1.6.9,1.4,1.8l-5.7,46,5.4,1.9.2-1.6-2.5-.3h-.4c0,0-.2-.2-.2-.2h-.2c0,0-.2-.2-.2-.2h-.2c0,0,0-.2,0-.2h0c0,0,0-.2,0-.2v-.2q0,0-.2-.2v-.5h0v-4.8h0v-.2h0v-.2h0q0-.2,0-.2l6.2-12.6,3-26.3c0-.9.9-1.6,1.8-1.4s1.6.9,1.4,1.8l-2.1,17.8h0c0,0,.2-.2.2-.2h.2c0,0,.2,0,.2,0h.2l11.5-.7h.2l3.5.2h.6c0,0,0,.2,0,.2h.2c0,0,.2.2.2.2h0c0,0,0,.2,0,.2v.2q0,0,0,0l4.1,6.9ZM483.8,34.4l-.2,1.2-23.1-4v8l22.4,2.6-.4,3.3-22-2.5v8.4l21.2.8-.4,3.3-20.9-.8v8.5l20.1-.7-.4,3.3-19.7.7v8l18.9-2-.2,1.9-10.1.5c-1.1,0-2.1.5-2.8,1.3-.2.3-.5.6-.6,1l-6.6.7h-.2c-.2,0-.2,0-.4,0l-5.3-1.4c-.7-.2-1.2-.9-1.2-1.6V31.1c0-.2,0-.3,0-.5h0c0-.2.2-.4.2-.5h0c0-.2.2-.3.3-.4.2,0,.3-.2.5-.2l5.3-1.3c.2,0,.5,0,.6,0l25.4,4.4c-.3.5-.5,1.2-.6,1.9Z"/>
      <polygon class="cls-74" points="455.2 39.9 457.2 39.6 457.2 31.8 455.2 32.4 455.2 39.9"/>
      <path class="cls-50" d="M499,68.9c4-.5,5.2.2,7.2,1.6.9.8,1.6,1.8,2.2,2.9l4.2-7.2-13.6.9v1.8Z"/>
      <polygon class="cls-28" points="455.2 73.5 457.2 74 457.2 66.2 455.2 66 455.2 73.5"/>
      <polygon class="cls-71" points="455.2 51.2 457.2 51.3 457.2 43 455.2 43.2 455.2 51.2"/>
      <polygon class="cls-8" points="455.2 62.6 457.2 62.9 457.2 54.6 455.2 54.6 455.2 62.6"/>
      <polygon class="cls-9" points="493.8 68.6 495.7 68.9 495.7 67 494 66.8 493.8 68.6"/>
      <polygon class="cls-36" points="489.5 68 490.5 68.2 490.7 66.4 489.5 66.4 489.5 68"/>
      <polygon class="cls-82" points="506.2 45.6 498.6 46.1 495.7 52.2 494.3 63.6 496.4 63.8 506.2 45.6"/>
      <path class="cls-3" d="M514.3,63.1l2-3.5c.2-.2.2-.5.4-.7v-4.4l-2.4-4.4v12.9Z"/>
      <polygon class="cls-64" points="514.3 63.2 514.3 63.1 514.3 63.2 514.3 63.2"/>
      <path class="cls-6" d="M501,78.4c-.2-.2-.4-.4-.6-.5s-.5-.2-.7-.2-.5,0-.7.2c-.2.2-.5.3-.6.5s-.3.5-.5.8c0,.3-.2.7-.2,1s0,.7.2,1c0,.3.2.5.5.8.2.2.4.4.6.5.5.2,1,.2,1.4,0,.2-.2.5-.3.6-.5.2-.2.3-.5.5-.8.2-.6.2-1.4,0-2-.2-.2-.3-.5-.5-.8Z"/>
      <polygon class="cls-80" points="491.4 61.1 490.3 63.2 491.1 63.2 491.4 61.1"/>
      <polygon class="cls-65" points="511 45.5 510.1 45.5 500.2 63.7 511 62.9 511 45.5"/>
    </g>
    <g id="Max1250" class="cls-86">
      <path class="cls-37" d="M527.3,35.8c-.2-1.3-.6-2.5-1.2-3.5l-11-19c-2-3.5-5.7-5.6-9.6-5.6h-21.9c-4.1,0-7.7,2.1-9.8,5.6l-11,19c-2,3.5-2,7.7,0,11.1l11,19c2,3.5,5.7,5.6,9.7,5.6h21.9c2.6,0,5.2-.9,7.2-2.6h0c-.6,0-1.3-.1-1.8-.4-.6-.3-1.1-.7-1.4-1.1-.4-.5-.8-1.1-.9-1.7-.5-1.3-.5-2.8,0-4.2.3-.6.6-1.2.9-1.7.4-.5.9-.9,1.4-1.1.6-.3,1.2-.4,1.8-.4s1.3.1,1.8.4c.6.3,1.1.7,1.4,1.1.4.5.8,1.1.9,1.7.1.3.2.7.3,1l.9-1.5c0-.2-.1-.4-.2-.6-.3-.9-.8-1.8-1.4-2.6-1.3-.9-1.6-1.2-5.4-.6h-.4l-3-.4-1.1,9.6v.2h0c0,.1,0,.3,0,.3,0,0,0,0,0,.1h0c0,.1,0,.1,0,.2h0c0,.1,0,.1-.1.1h0c0,0,0,.1-.1.1h-.1c0,0-.1.1-.1.1h-.3l-11.3.4h0c-.7,0-1.3-.6-1.3-1.3,0-.7.5-1.3,1.3-1.4l10.2-.4v-1c.1,0-4.2-1.7-4.2-1.7-.1.6-.6.9-1.2,1l-11,.4h0c-.8,0-1.3-.6-1.3-1.4,0-.7.6-1.2,1.2-1.3l9.8-.4,5.2-41.9c0-.7.8-1.3,1.4-1.1.7,0,1.3.8,1.1,1.4l-4.6,37.2,4.3,1.5v-1.3c.1,0-1.9-.3-1.9-.3h-.3c0,0-.1-.1-.1-.1h-.1c0,0-.1-.2-.1-.2h-.1c0,0,0-.2,0-.2h0c0,0,0-.2,0-.2h0q0-.2,0-.3h0v-.3h0v-4h0v-.2h0q0-.2,0-.3l5-10.2,2.5-21.2c0-.7.8-1.3,1.4-1.1s1.3.8,1.1,1.4l-1.7,14.4h0c0,0,.1-.1.1-.1h.1c0,0,.1,0,.1,0h.2l9.3-.6h.2l2.8.2h.5c0,0,0,.1,0,.1h.1c0,0,.1.1.1.1h0c0,0,0,.1,0,.1h0v.2l3.3,5.6ZM499.8,23.1v1c-.1,0-18.8-3.2-18.8-3.2v6.4l18.1,2.1-.3,2.6-17.8-2v6.8l17.1.6-.3,2.6-16.9-.6v6.9l16.2-.6-.3,2.6-15.9.6v6.4l15.3-1.6-.2,1.6-8.1.4c-.9,0-1.7.4-2.3,1.1-.2.3-.4.5-.5.8l-5.4.6h-.1c-.1,0-.2,0-.3,0l-4.3-1.1c-.6-.1-.9-.7-1-1.3V20.4c0-.1,0-.3,0-.4h0c0-.2.1-.3.2-.4h0c0-.2.2-.3.3-.3.1,0,.3-.1.4-.2l4.3-1.1c.2,0,.4,0,.5,0l20.5,3.5c-.3.4-.4.9-.5,1.5Z"/>
      <polygon class="cls-38" points="476.6 27.6 478.3 27.3 478.3 21 476.6 21.5 476.6 27.6"/>
      <path class="cls-10" d="M512,51c3.2-.4,4.2.1,5.9,1.3.8.6,1.3,1.4,1.8,2.3l3.4-5.9-11,.8v1.4Z"/>
      <polygon class="cls-75" points="476.6 54.7 478.3 55.1 478.3 48.8 476.6 48.6 476.6 54.7"/>
      <polygon class="cls-31" points="476.6 36.7 478.3 36.8 478.3 30 476.6 30.2 476.6 36.7"/>
      <polygon class="cls-11" points="476.6 45.9 478.3 46.2 478.3 39.4 476.6 39.4 476.6 45.9"/>
      <polygon class="cls-48" points="507.8 50.8 509.4 51 509.4 49.4 508 49.3 507.8 50.8"/>
      <polygon class="cls-70" points="504.4 50.3 505.2 50.4 505.4 49 504.4 48.9 504.4 50.3"/>
      <polygon class="cls-26" points="517.9 32.2 511.7 32.6 509.4 37.5 508.3 46.7 510 46.9 517.9 32.2"/>
      <path class="cls-20" d="M524.4,46.3l1.6-2.8c.1-.2.2-.4.3-.6v-3.5l-2-3.5v10.4Z"/>
      <polygon class="cls-59" points="524.4 46.4 524.4 46.3 524.4 46.4 524.4 46.4"/>
      <path class="cls-25" d="M513.7,58.6c-.1-.2-.3-.3-.5-.4s-.4-.1-.6-.1-.4,0-.6.1c-.2.1-.4.3-.5.4s-.3.4-.4.6c0,.3-.1.6-.1.8s0,.6.1.8c0,.3.2.4.4.6.1.2.3.3.5.4.4.2.8.2,1.1,0,.2-.1.4-.3.5-.4.1-.2.3-.4.4-.6.2-.5.2-1.1,0-1.6-.1-.2-.3-.4-.4-.6Z"/>
      <polygon class="cls-61" points="505.9 44.7 505.1 46.4 505.7 46.4 505.9 44.7"/>
      <polygon class="cls-40" points="521.7 32.1 521 32.1 513.1 46.8 521.7 46.2 521.7 32.1"/>
    </g>
  </g>
  <g id="commerce">
    <g id="Min1400-2" data-name="Min1400" class="cls-86">
      <g>
        <path class="cls-85" d="M489,79.1c-.3-.7-1.2-2.3-3.1-1.9-2.5,1.2-8.7,4.8-9.4,9.2v1.1l12.5-2.1v-6.2Z"/>
        <path class="cls-55" d="M461.8,86.3l11,1.6v-1.7c0,0,0-.2,0-.3.5-3.8,3.4-6.8,6.2-8.9l-9.7-.4c0,0,0,.2-.1.2l4.4.4c.7,0,1.4.6,1.6,1.3.2.7,0,1.5-.5,2-2.1,1.8-2.4,4.1-2.4,4.1-.1.9-.9,1.6-1.8,1.6s-.1,0-.2,0l-8.5-.9v1.1Z"/>
        <path class="cls-16" d="M463.5,80c-.3.3-.6.8-1.1,1.6l6.7.7c.2-.5.4-1.1.8-1.7l-6.4-.6Z"/>
        <path class="cls-32" d="M426.6,100.2l39.5,8.7v-13.5c-.1,0-39.6-5.7-39.6-5.7v10.5ZM445.4,97.2c.8,0,1.5.7,1.5,1.5s-.7,1.5-1.5,1.5-1.5-.7-1.5-1.5.7-1.5,1.5-1.5Z"/>
        <path class="cls-47" d="M471.1,91.4l-11.4-1.6c-.7,0-1.2-.6-1.5-1.2l-2.6.8c-.2,0-.4,0-.5,0s0,0,0,0c0,0-.2,0-.3,0l-20.6-3-1.3.4,34.9,5,3.2-.5Z"/>
        <path class="cls-73" d="M432.9,71.2l45.6,2.1,12.3-37.6-.7-1.3-11.9,36.2c-.3.8-1,1.3-1.8,1.3s0,0,0,0l-44.1-1.7.7,1Z"/>
        <path class="cls-54" d="M432.5,66.4l42.6,1.7,12.5-38c-2-3.5-5.1-6.1-8.7-7.6l-30.4,6.1-16.1,37.8ZM469.9,61l-6.7.2s0,0,0,0c-1,0-1.8-.8-1.9-1.8,0-1,.8-1.9,1.8-1.9l6.7-.2s0,0,0,0c1,0,1.8.8,1.9,1.8,0,1-.8,1.9-1.8,1.9ZM466.9,35.8l3.8-.6.9-2.7c.3-1,1.4-1.5,2.4-1.2,1,.3,1.5,1.4,1.2,2.4l-.3.8,1.8-.3c1-.2,2,.5,2.1,1.5.2,1-.5,2-1.5,2.1l-3.8.6-1.4,4.3c-.3.8-1,1.3-1.8,1.3s-.4,0-.6,0c-1-.3-1.5-1.4-1.2-2.4l.8-2.5-1.9.3c-.1,0-.2,0-.3,0-.9,0-1.7-.6-1.8-1.6-.2-1,.5-2,1.5-2.1ZM470.2,52.3c1,0,1.9.7,1.9,1.8,0,1-.7,1.9-1.8,1.9l-6.8.3s0,0,0,0c-1,0-1.8-.8-1.9-1.8,0-1,.7-1.9,1.8-1.9l6.8-.3ZM453.1,38l7.7-1.3c1-.2,2,.5,2.1,1.5s-.5,2-1.5,2.1l-7.7,1.3c-.1,0-.2,0-.3,0-.9,0-1.7-.6-1.8-1.6-.2-1,.5-2,1.5-2.1ZM451.4,50.5l1.5,2.4,3.6-2.7c.8-.6,2-.5,2.6.4.6.8.5,2-.4,2.6l-3.9,3,1.8,3.1c.5.9.2,2-.6,2.5-.3.2-.6.3-1,.3-.6,0-1.2-.3-1.6-.9l-1.6-2.7-3.8,2.8c-.3.3-.7.4-1.1.4-.6,0-1.1-.3-1.5-.7-.6-.8-.5-2,.4-2.6l4.1-3.1-1.7-2.8c-.5-.9-.2-2,.6-2.5.9-.5,2-.2,2.5.6Z"/>
        <polygon class="cls-81" points="453.4 81.2 437.3 79.6 437.3 83.1 453.3 85.4 453.4 81.2"/>
        <path class="cls-62" d="M482.5,73.3h3.7s0,0,0,0c3.7-.2,5.8,2.9,6.4,4.8,0,.2,0,.4,0,.6v4.5c0,0,8.6,1.3,8.6,1.3l3.8-6.6c3.2-5.5,3.2-12.2,0-17.7l-11.7-20.2-11,33.3Z"/>
        <path class="cls-4" d="M492,88.3l4.7-.7-4-.6c0,.5-.3,1-.7,1.3Z"/>
        <path class="cls-69" d="M458.9,80.3l-1.8.5v4.2c0,0,1-.3,1-.3h0c0-.2,0-.4,0-.6,0,0,0,0,0,0-.3-.5-.3-1.1-.1-1.7.3-.8.7-1.5,1-2.1Z"/>
        <path class="cls-79" d="M468.4,113c-.1,0-.3,0-.4,0h0c-.1,0-.3,0-.4,0,0,0,0,0,0,0l-43.2-9.5c-.8-.2-1.4-.9-1.5-1.8l-.2-14.1s0,0,0,0c0,0,0-.1,0-.2,0,0,0-.2,0-.3,0,0,0,0,0,0,0-.2.1-.3.2-.5,0,0,0,0,0,0,.1-.1.2-.3.4-.4,0,0,0,0,0,0,.1-.1.3-.2.5-.2,0,0,0,0,0,0l9.5-3v-5.6c0-.8.6-1.6,1.4-1.8l1.4-.4-4.6-.2c-.6,0-1.2-.3-1.5-.9l-2.5-4c-.3-.5-.4-1.2-.1-1.7l17.9-42c.2-.6.7-1,1.3-1.1l19.6-3.9h-29.1c-6.3,0-12.2,3.4-15.4,8.9l-17.4,30.2c-3.2,5.5-3.2,12.2,0,17.7l17.4,30.2c3.2,5.5,9,8.9,15.4,8.9h34.8c6,0,11.6-3.1,14.9-8.1l-18.8,4.1Z"/>
        <polygon class="cls-1" points="489.8 104.5 497.4 91.3 469.7 95.3 469.8 108.9 489.8 104.5"/>
        <path class="cls-17" d="M448.9,75.6c-.1,0-.3.1-.4.2l-3.3.8,9.7,1,5-1.5-11-.5Z"/>
      </g>
    </g>
    <g id="Min1250-2" data-name="Min1250">
      <g>
        <path class="cls-57" d="M503.5,60.5c-.2-.5-.9-1.8-2.4-1.5-2,.9-6.7,3.8-7.3,7.1v.8l9.7-1.6v-4.8Z"/>
        <path class="cls-66" d="M482.4,66.1l8.6,1.2v-1.3c0,0,0-.1,0-.2.4-2.9,2.6-5.3,4.8-7l-7.5-.3c0,0,0,.1,0,.2l3.4.3c.6,0,1.1.4,1.2,1,.2.6,0,1.2-.4,1.5-1.6,1.4-1.9,3.2-1.9,3.2,0,.7-.7,1.2-1.4,1.2s-.1,0-.2,0l-6.6-.7v.9Z"/>
        <path class="cls-2" d="M483.7,61.2c-.2.2-.5.6-.8,1.2l5.2.6c.1-.4.3-.9.6-1.3l-5-.5Z"/>
        <path class="cls-21" d="M455.1,76.9l30.7,6.8v-10.5c0,0-30.7-4.4-30.7-4.4v8.2ZM469.6,74.6c.6,0,1.1.5,1.1,1.2s-.5,1.2-1.1,1.2-1.1-.5-1.1-1.2.5-1.2,1.1-1.2Z"/>
        <path class="cls-78" d="M489.6,70.1l-8.9-1.3c-.5,0-1-.4-1.1-.9l-2,.6c-.1,0-.3,0-.4,0s0,0,0,0c0,0-.1,0-.2,0l-16-2.3-1,.3,27.1,3.9,2.5-.4Z"/>
        <path class="cls-24" d="M460,54.3l35.4,1.6,9.6-29.3-.6-1-9.3,28.2c-.2.6-.7,1-1.4,1s0,0,0,0l-34.2-1.3.5.8Z"/>
        <path class="cls-76" d="M459.7,50.6l33.1,1.3,9.7-29.6c-1.6-2.7-4-4.8-6.8-5.9l-23.6,4.7-12.5,29.5ZM488.7,46.4h-5.2c0,.1,0,.1,0,.1-.8,0-1.4-.6-1.4-1.4,0-.8.6-1.5,1.4-1.5h5.2c0-.1,0-.1,0-.1.8,0,1.4.6,1.4,1.4,0,.8-.6,1.5-1.4,1.5ZM486.4,26.8l3-.5.7-2.1c.3-.8,1.1-1.2,1.8-.9.8.3,1.2,1.1.9,1.8l-.2.7,1.4-.2c.8-.1,1.5.4,1.7,1.2.1.8-.4,1.5-1.2,1.7l-2.9.5-1.1,3.4c-.2.6-.8,1-1.4,1s-.3,0-.5,0c-.8-.3-1.2-1.1-.9-1.8l.6-1.9-1.5.2c0,0-.2,0-.2,0-.7,0-1.3-.5-1.4-1.2-.1-.8.4-1.5,1.2-1.7ZM488.9,39.6c.8,0,1.5.6,1.5,1.4,0,.8-.6,1.5-1.4,1.5l-5.3.3s0,0,0,0c-.8,0-1.4-.6-1.4-1.4,0-.8.6-1.5,1.4-1.5l5.3-.3ZM475.6,28.5l6-1c.8-.1,1.5.4,1.7,1.2s-.4,1.5-1.2,1.7l-6,1c0,0-.2,0-.2,0-.7,0-1.3-.5-1.4-1.2-.1-.8.4-1.5,1.2-1.7ZM474.3,38.2l1.1,1.9,2.8-2.1c.6-.5,1.5-.4,2,.3.5.6.4,1.5-.3,2l-3.1,2.3,1.4,2.4c.4.7.2,1.6-.5,2-.2.1-.5.2-.7.2-.5,0-1-.3-1.2-.7l-1.3-2.1-2.9,2.2c-.3.2-.6.3-.9.3-.4,0-.9-.2-1.2-.6-.5-.6-.4-1.5.3-2l3.2-2.4-1.3-2.2c-.4-.7-.2-1.6.5-2,.7-.4,1.6-.2,2,.5Z"/>
        <polygon class="cls-42" points="475.8 62.1 463.4 60.9 463.4 63.6 475.8 65.4 475.8 62.1"/>
        <path class="cls-19" d="M498.4,56h2.8s0,0,0,0c2.9-.1,4.5,2.3,5,3.7,0,.1,0,.3,0,.4v3.5s6.7,1,6.7,1l3-5.1c2.5-4.3,2.5-9.5,0-13.8l-9.1-15.8-8.5,26Z"/>
        <path class="cls-46" d="M505.9,67.7l3.6-.5-3.1-.5c0,.4-.2.8-.6,1Z"/>
        <path class="cls-84" d="M480.1,61.4l-1.4.4v3.3c0,0,.8-.3.8-.3h0c0-.2,0-.3,0-.5,0,0,0,0,0,0-.2-.4-.3-.9,0-1.3.3-.6.5-1.2.8-1.7Z"/>
        <path class="cls-22" d="M487.5,86.9c0,0-.2,0-.3,0h0c-.1,0-.2,0-.3,0,0,0,0,0,0,0l-33.5-7.4c-.7-.1-1.1-.7-1.1-1.4v-11c-.1,0-.1,0-.1,0,0,0,0-.1,0-.2,0,0,0-.1,0-.2,0,0,0,0,0,0,0-.1.1-.2.2-.4,0,0,0,0,0,0,0-.1.2-.2.3-.3,0,0,0,0,0,0,.1,0,.2-.1.4-.2,0,0,0,0,0,0l7.4-2.3v-4.4c0-.7.4-1.2,1.1-1.4l1.1-.3-3.5-.2c-.5,0-.9-.3-1.1-.7l-2-3.1c-.3-.4-.3-.9-.1-1.3l13.9-32.8c.2-.4.6-.8,1-.9l15.2-3.1h-22.6c-4.9,0-9.5,2.6-11.9,6.9l-13.5,23.5c-2.5,4.3-2.5,9.5,0,13.8l13.5,23.5c2.5,4.3,7,6.9,11.9,6.9h27c4.7,0,9-2.4,11.6-6.3l-14.6,3.2Z"/>
        <polygon class="cls-39" points="504.1 80.3 510.1 70 488.5 73.2 488.6 83.7 504.1 80.3"/>
        <path class="cls-77" d="M472.3,57.8c-.1,0-.2.1-.3.1l-2.5.7,7.5.8,3.9-1.2-8.6-.4Z"/>
      </g>
    </g>
    <g id="Max1250-2" data-name="Max1250" class="cls-86">
      <g>
        <path class="cls-72" d="M515.7,44.2c-.2-.4-.7-1.4-1.9-1.2-1.6.7-5.4,3-5.9,5.8v.7l7.8-1.3v-3.9Z"/>
        <path class="cls-67" d="M498.6,48.8l6.9,1v-1.1c0,0,0-.1,0-.2.3-2.4,2.1-4.3,3.9-5.6l-6.1-.3s0,0,0,.1l2.8.3c.5,0,.9.4,1,.8.1.4,0,.9-.3,1.2-1.3,1.1-1.5,2.6-1.5,2.6,0,.6-.6,1-1.2,1s0,0-.1,0l-5.3-.6v.7Z"/>
        <path class="cls-29" d="M499.7,44.8c-.2.2-.4.5-.7,1l4.2.5c.1-.3.3-.7.5-1.1l-4-.4Z"/>
        <path class="cls-23" d="M476.6,57.5l24.8,5.5v-8.5c0,0-24.8-3.6-24.8-3.6v6.6ZM488.3,55.6c.5,0,.9.4.9.9s-.4.9-.9.9-.9-.4-.9-.9.4-.9.9-.9Z"/>
        <path class="cls-33" d="M504.5,51.9l-7.2-1c-.4,0-.8-.4-.9-.8l-1.6.5c-.1,0-.2,0-.3,0s0,0,0,0c0,0-.1,0-.2,0l-12.9-1.9-.8.3,21.9,3.1,2-.3Z"/>
        <path class="cls-27" d="M480.5,39.2l28.6,1.3,7.7-23.7-.5-.8-7.5,22.8c-.2.5-.6.8-1.1.8s0,0,0,0l-27.7-1.1.4.7Z"/>
        <path class="cls-51" d="M480.3,36.2l26.7,1,7.9-23.9c-1.3-2.2-3.2-3.8-5.5-4.8l-19,3.8-10.1,23.8ZM503.7,32.8h-4.2c0,.1,0,.1,0,.1-.6,0-1.1-.5-1.2-1.1,0-.6.5-1.2,1.1-1.2h4.2c0-.1,0-.1,0-.1.6,0,1.1.5,1.2,1.1,0,.6-.5,1.2-1.1,1.2ZM501.8,17l2.4-.4.6-1.7c.2-.6.9-.9,1.5-.7.6.2.9.9.7,1.5l-.2.5,1.2-.2c.6-.1,1.2.3,1.3,1,.1.6-.3,1.2-1,1.3l-2.4.4-.9,2.7c-.2.5-.6.8-1.1.8s-.2,0-.4,0c-.6-.2-.9-.9-.7-1.5l.5-1.6-1.2.2c0,0-.1,0-.2,0-.6,0-1.1-.4-1.1-1-.1-.6.3-1.2,1-1.3ZM503.9,27.3c.6,0,1.2.5,1.2,1.1,0,.6-.5,1.2-1.1,1.2l-4.3.2s0,0,0,0c-.6,0-1.1-.5-1.2-1.1,0-.6.5-1.2,1.1-1.2l4.3-.2ZM493.1,18.3l4.8-.8c.6-.1,1.2.3,1.3,1s-.3,1.2-1,1.3l-4.8.8c0,0-.1,0-.2,0-.6,0-1.1-.4-1.1-1-.1-.6.3-1.2,1-1.3ZM492.1,26.2l.9,1.5,2.3-1.7c.5-.4,1.2-.3,1.6.2.4.5.3,1.2-.2,1.6l-2.5,1.9,1.2,1.9c.3.6.2,1.3-.4,1.6-.2.1-.4.2-.6.2-.4,0-.8-.2-1-.6l-1-1.7-2.4,1.8c-.2.2-.5.2-.7.2-.4,0-.7-.2-.9-.5-.4-.5-.3-1.2.2-1.6l2.6-1.9-1-1.8c-.3-.6-.2-1.3.4-1.6.6-.3,1.3-.2,1.6.4Z"/>
        <polygon class="cls-5" points="493.3 45.5 483.3 44.5 483.3 46.7 493.3 48.2 493.3 45.5"/>
        <path class="cls-18" d="M511.6,40.6h2.3s0,0,0,0c2.3-.1,3.6,1.8,4,3,0,.1,0,.2,0,.4v2.9s5.4.8,5.4.8l2.4-4.2c2-3.5,2-7.7,0-11.2l-7.3-12.8-6.9,21Z"/>
        <path class="cls-63" d="M517.6,50l2.9-.4-2.5-.4c0,.3-.2.6-.5.8Z"/>
        <path class="cls-35" d="M496.8,44.9l-1.1.3v2.7c0,0,.6-.2.6-.2h0c0-.1,0-.2,0-.4,0,0,0,0,0,0-.2-.3-.2-.7,0-1,.2-.5.4-1,.6-1.3Z"/>
        <path class="cls-52" d="M502.8,65.6c0,0-.2,0-.2,0h0c0,0-.2,0-.2,0,0,0,0,0,0,0l-27.1-6c-.5-.1-.9-.6-.9-1.1v-8.9c0,0,0,0,0,0,0,0,0,0,0-.1,0,0,0-.1,0-.2,0,0,0,0,0,0,0-.1,0-.2.1-.3,0,0,0,0,0,0,0,0,.1-.2.2-.2,0,0,0,0,0,0,0,0,.2-.1.3-.1,0,0,0,0,0,0l6-1.9v-3.5c0-.5.4-1,.9-1.1l.9-.2h-2.9c-.4-.1-.7-.4-.9-.7l-1.6-2.5c-.2-.3-.2-.7,0-1.1l11.2-26.5c.2-.4.5-.6.8-.7l12.3-2.5h-18.2c-4,0-7.6,2.1-9.6,5.6l-10.9,19c-2,3.5-2,7.7,0,11.2l10.9,19c2,3.5,5.7,5.6,9.6,5.6h21.8c3.8,0,7.3-1.9,9.3-5.1l-11.8,2.6Z"/>
        <polygon class="cls-12" points="516.2 60.2 521 51.9 503.6 54.4 503.7 63 516.2 60.2"/>
        <path class="cls-30" d="M490.5,42c0,0-.2,0-.3.1l-2.1.5,6.1.6,3.2-.9-6.9-.3Z"/>
      </g>
    </g>
  </g>
</svg>