<?xml version="1.0" encoding="UTF-8"?>
<svg id="Ebene_2" data-name="Ebene 2" xmlns="http://www.w3.org/2000/svg" viewBox="0 0 155.16 141.73">
  <defs>
    <style>
      .cls-1 {
        fill: #fff;
      }

      .cls-1, .cls-2 {
        stroke-width: 0px;
      }

      .cls-2 {
        fill: #1d1d1b;
      }
    </style>
  </defs>
  <g id="a">
    <g>
      <path class="cls-2" d="M102.62,0h-50.1c-9.82,0-18.89,5.23-23.8,13.74L3.68,57.13c-4.91,8.5-4.91,18.98,0,27.48l25.05,43.39c4.91,8.5,13.98,13.74,23.8,13.74h50.1c9.82,0,18.89-5.23,23.8-13.74l25.05-43.39c4.91-8.5,4.91-18.98,0-27.48l-25.06-43.39c-4.91-8.5-13.98-13.74-23.8-13.74Z"/>
      <path class="cls-1" d="M77.56,44.39c-1.78,0-3.53.17-5.21.52v-7.67c1.7-.27,3.45-.39,5.21-.39,8.82,0,16.85,3.35,22.9,8.85l5.53-5.53c1.59-1.59,4.3-.46,4.3,1.78v16.6c0,1.39-1.13,2.52-2.52,2.52h-16.6c-2.25,0-3.37-2.71-1.78-4.3l5.72-5.72c-4.66-4.14-10.82-6.65-17.54-6.65v-.02ZM57.53,53.59c-4,4.63-6.41,10.68-6.41,17.28,0,1.75.17,3.46.49,5.12h-7.67c-.25-1.67-.38-3.37-.38-5.12,0-8.69,3.26-16.61,8.61-22.63l-5.54-5.54c-1.59-1.59-.47-4.3,1.78-4.3h16.6c1.39,0,2.52,1.13,2.52,2.52v16.58c0,2.25-2.71,3.37-4.3,1.78l-5.7-5.7v.02ZM65.75,85.46l-5.45,5.45c4.63,4,10.68,6.41,17.28,6.41,1.65,0,3.29-.16,4.87-.44v7.65c-1.59.22-3.21.35-4.87.35-8.69,0-16.61-3.26-22.63-8.61l-5.8,5.78c-1.59,1.59-4.3.46-4.3-1.78v-16.6c0-1.39,1.13-2.52,2.52-2.52h16.6c2.25,0,3.37,2.71,1.78,4.3v.02ZM91.93,82.94l5.46,5.46c4.14-4.66,6.65-10.82,6.65-17.54,0-1.7-.16-3.35-.47-4.96h7.67c.24,1.62.36,3.28.36,4.96,0,8.82-3.35,16.85-8.85,22.9l5.78,5.78c1.59,1.59.46,4.3-1.78,4.3h-16.61c-1.39,0-2.52-1.13-2.52-2.52v-16.61c0-2.25,2.71-3.37,4.3-1.78l.02.02Z"/>
    </g>
  </g>
</svg>