<?xml version="1.0" encoding="UTF-8"?>
<svg id="Ebene_2" data-name="Ebene 2" xmlns="http://www.w3.org/2000/svg" viewBox="0 0 155.16 141.73">
  <defs>
    <style>
      .cls-1 {
        fill: #fff;
      }

      .cls-1, .cls-2 {
        stroke-width: 0px;
      }

      .cls-2 {
        fill: #1d1d1b;
      }
    </style>
  </defs>
  <g id="a">
    <g>
      <path class="cls-2" d="M102.62,0h-50.1c-9.82,0-18.89,5.23-23.8,13.74L3.68,57.13c-4.91,8.5-4.91,18.98,0,27.48l25.05,43.39c4.91,8.5,13.98,13.74,23.8,13.74h50.1c9.82,0,18.89-5.23,23.8-13.74l25.05-43.39c4.91-8.5,4.91-18.98,0-27.48l-25.06-43.39c-4.91-8.5-13.98-13.74-23.8-13.74Z"/>
      <path class="cls-1" d="M106.7,54.06h0c.77,1.22.85,2.72.31,4-.52,1.22-1.47,1.97-2.67,2.13-.27.04-.52.05-.77.05-1.55,0-2.95-.68-3.95-1.75-1.21-1.33-2.92-2.09-4.73-2.09s-3.52.77-4.72,2.1c-.97,1.08-2.35,1.75-3.93,1.75s-2.96-.68-3.93-1.75c-1.21-1.34-2.92-2.1-4.73-2.1s-3.52.76-4.73,2.1c-.97,1.08-2.35,1.75-3.93,1.75s-2.96-.68-3.93-1.75c-1.21-1.34-2.92-2.1-4.73-2.1s-3.52.76-4.73,2.1c-.97,1.08-2.35,1.75-3.93,1.75-.24,0-.5-.01-.77-.05-1.18-.16-2.13-.9-2.64-2.13-.54-1.28-.47-2.78.31-4h0l6.84-10.84h44.54l6.84,10.83ZM103.56,66.61c.54,0,1.08-.04,1.59-.11,7.37-.98,10.87-9.63,6.92-15.87l-7.61-12.05c-.68-1.08-1.89-1.74-3.18-1.74h-47.41c-1.29,0-2.5.66-3.18,1.74l-7.63,12.05c-3.93,6.22-.45,14.87,6.9,15.87.53.07,1.08.11,1.61.11h0c2.6,0,4.98-.85,6.9-2.26.64-.47,1.22-1.01,1.75-1.58.53.58,1.12,1.12,1.75,1.58,1.93,1.41,4.31,2.26,6.91,2.26s4.98-.85,6.91-2.26c.64-.47,1.22-1.01,1.75-1.59.53.58,1.12,1.12,1.75,1.58,1.93,1.41,4.31,2.26,6.91,2.26s5.02-.86,6.95-2.3c.62-.47,1.2-.98,1.71-1.55.52.57,1.1,1.1,1.73,1.57,1.93,1.42,4.32,2.29,6.94,2.29h.01ZM54.2,81.5v-10.84c-.85.15-1.71.21-2.6.21-.73,0-1.46-.05-2.17-.15h-.01c-.54-.08-1.08-.17-1.59-.31v25.96c0,4.69,3.81,8.5,8.5,8.5h42.52c4.69,0,8.5-3.81,8.5-8.5v-25.96c-.53.13-1.06.24-1.63.31h-.01c-.7.09-1.42.15-2.15.15-.88,0-1.74-.07-2.58-.21v10.84h-46.77ZM100.97,87.87v8.5c0,1.17-.96,2.13-2.13,2.13h-42.52c-1.17,0-2.13-.96-2.13-2.13v-8.5h46.77Z"/>
    </g>
  </g>
</svg>