<?xml version="1.0" encoding="UTF-8"?>
<svg id="Ebene_2" data-name="Ebene 2" xmlns="http://www.w3.org/2000/svg" viewBox="0 0 155.16 141.73">
  <defs>
    <style>
      .cls-1 {
        fill: #fff;
      }

      .cls-1, .cls-2 {
        stroke-width: 0px;
      }

      .cls-2 {
        fill: #1d1d1b;
      }
    </style>
  </defs>
  <g id="a">
    <path class="cls-2" d="M102.62,0h-50.1c-9.82,0-18.89,5.23-23.8,13.74L3.68,57.13c-4.91,8.5-4.91,18.98,0,27.48l25.05,43.39c4.91,8.5,13.98,13.74,23.8,13.74h50.1c9.82,0,18.89-5.23,23.8-13.74l25.05-43.39c4.91-8.5,4.91-18.98,0-27.48l-25.06-43.39c-4.91-8.5-13.98-13.74-23.8-13.74Z"/>
    <g>
      <path class="cls-1" d="M102.29,63.78s.85-20.31-18.55-31.98c-11.89-7.14-25.05-5.79-29.94-3.07-3.56,1.98-5.39,4.2-6.99,6.99-1.66,2.89-3.59,6.29-6.84,11.85,4.25-3.13,8.24-6.32,17.41-8.25,11.85-2.48,22.94,1.13,29.61,5.47,9.4,6.11,14.01,14.01,15.29,18.99Z"/>
      <path class="cls-1" d="M96.08,88.71s18.02-9.42,18.42-32.05c.25-13.87-7.51-24.59-12.32-27.46-3.5-2.08-6.34-2.56-9.54-2.55-3.34,0-7.24.03-13.67,0,4.82,2.13,9.59,3.97,15.84,10.96,8.07,9.01,10.49,20.44,10.07,28.38-.6,11.19-5.13,19.14-8.81,22.73Z"/>
      <path class="cls-1" d="M52.88,77.96s-.85,20.31,18.55,31.98c11.88,7.14,25.05,5.79,29.94,3.07,3.56-1.98,5.39-4.2,6.99-6.99,1.66-2.89,3.59-6.29,6.84-11.85-4.25,3.11-8.24,6.32-17.41,8.24-11.85,2.48-22.94-1.13-29.61-5.47-9.4-6.1-14.02-14-15.29-18.98Z"/>
      <path class="cls-1" d="M59.09,53.02s-18.02,9.42-18.42,32.05c-.25,13.87,7.51,24.59,12.32,27.46,3.5,2.09,6.33,2.56,9.54,2.55,3.34,0,7.24-.03,13.67,0-4.82-2.13-9.58-3.97-15.84-10.96-8.06-9.01-10.48-20.44-10.07-28.38.61-11.2,5.14-19.15,8.81-22.73Z"/>
      <path class="cls-1" d="M71.37,95.81s17.18,10.91,36.97-.08c12.13-6.72,17.54-18.8,17.62-24.4.06-4.07-.95-6.77-2.56-9.54-1.67-2.89-3.65-6.26-6.84-11.85.57,5.23,1.35,10.29-1.57,19.19-3.77,11.49-12.45,19.31-19.54,22.91-9.99,5.09-19.14,5.14-24.08,3.75Z"/>
      <path class="cls-1" d="M83.8,45.93s-17.16-10.91-36.97.08c-12.13,6.72-17.54,18.79-17.63,24.4-.06,4.07.95,6.77,2.56,9.54,1.67,2.89,3.65,6.26,6.84,11.85-.57-5.23-1.35-10.29,1.57-19.19,3.77-11.49,12.45-19.31,19.54-22.91,9.99-5.09,19.15-5.14,24.09-3.75Z"/>
    </g>
  </g>
</svg>