<?xml version="1.0" encoding="UTF-8"?>
<svg id="Ebene_2" data-name="Ebene 2" xmlns="http://www.w3.org/2000/svg" viewBox="0 0 155.16 141.73">
  <defs>
    <style>
      .cls-1 {
        fill: #fff;
      }

      .cls-1, .cls-2 {
        stroke-width: 0px;
      }

      .cls-2 {
        fill: #1d1d1b;
      }
    </style>
  </defs>
  <g id="a">
    <g>
      <path class="cls-2" d="M102.62,0h-50.1c-9.82,0-18.89,5.23-23.8,13.74L3.68,57.13c-4.91,8.5-4.91,18.98,0,27.48l25.05,43.39c4.91,8.5,13.98,13.74,23.8,13.74h50.1c9.82,0,18.89-5.23,23.8-13.74l25.05-43.39c4.91-8.5,4.91-18.98,0-27.48l-25.06-43.39c-4.91-8.5-13.98-13.74-23.8-13.74Z"/>
      <path class="cls-1" d="M73.33,45.36c0,2.25-.86,4.28-2.29,5.79l3.57,7.64c1.62-.45,3.32-.69,5.09-.69,5.18,0,9.89,2.06,13.33,5.41l10.31-7.56c-.17-.66-.25-1.37-.25-2.09,0-4.69,3.81-8.5,8.5-8.5s8.5,3.81,8.5,8.5-3.81,8.5-8.5,8.5c-1.63,0-3.18-.47-4.48-1.28l-10.31,7.56c1.3,2.58,2.03,5.5,2.03,8.58,0,2.46-.47,4.81-1.32,6.98l8.94,5.37c1.42-1.08,3.2-1.71,5.12-1.71,4.69,0,8.5,3.81,8.5,8.5s-3.81,8.5-8.5,8.5-8.5-3.81-8.5-8.5c0-.45.04-.89.11-1.32l-8.96-5.37c-3.49,4.11-8.7,6.7-14.52,6.7-9.49,0-17.35-6.9-18.87-15.94h-9.39c-1.26,3.12-4.32,5.31-7.88,5.31-4.69,0-8.5-3.81-8.5-8.5s3.81-8.5,8.5-8.5c3.57,0,6.63,2.19,7.88,5.31h9.39c.88-5.2,3.84-9.69,8-12.56l-3.57-7.65c-.15.01-.29.01-.44.01-4.69,0-8.5-3.81-8.5-8.5s3.81-8.5,8.5-8.5,8.5,3.81,8.5,8.5ZM79.71,90.01c7.04,0,12.76-5.71,12.76-12.76s-5.71-12.76-12.76-12.76-12.76,5.71-12.76,12.76,5.71,12.76,12.76,12.76Z"/>
    </g>
  </g>
</svg>