<?xml version="1.0" encoding="UTF-8"?>
<svg id="Ebene_2" data-name="Ebene 2" xmlns="http://www.w3.org/2000/svg" viewBox="0 0 155.16 141.73">
  <defs>
    <style>
      .cls-1 {
        fill: #fff;
      }

      .cls-1, .cls-2 {
        stroke-width: 0px;
      }

      .cls-2 {
        fill: #1d1d1b;
      }
    </style>
  </defs>
  <g id="a">
    <g>
      <path class="cls-2" d="M102.62,0h-50.1c-9.82,0-18.89,5.23-23.8,13.74L3.68,57.13c-4.91,8.5-4.91,18.98,0,27.48l25.05,43.39c4.91,8.5,13.98,13.74,23.8,13.74h50.1c9.82,0,18.89-5.23,23.8-13.74l25.05-43.39c4.91-8.5,4.91-18.98,0-27.48l-25.06-43.39c-4.91-8.5-13.98-13.74-23.8-13.74Z"/>
      <path class="cls-1" d="M44.18,38.62c1.91,0,3.45,1.54,3.45,3.45v50.67c0,1.91,1.54,3.45,3.45,3.45h59.88c1.91,0,3.45,1.54,3.45,3.45s-1.54,3.45-3.45,3.45h-59.88c-5.73,0-10.36-4.64-10.36-10.36v-50.67c0-1.91,1.54-3.45,3.45-3.45ZM64.91,66.26c1.91,0,3.45,1.54,3.45,3.45v11.52c0,1.91-1.54,3.45-3.45,3.45s-3.45-1.54-3.45-3.45v-11.52c0-1.91,1.54-3.45,3.45-3.45ZM82.19,55.9v25.33c0,1.91-1.54,3.45-3.45,3.45s-3.45-1.54-3.45-3.45v-25.33c0-1.91,1.54-3.45,3.45-3.45s3.45,1.54,3.45,3.45ZM92.55,61.65c1.91,0,3.45,1.54,3.45,3.45v16.12c0,1.91-1.54,3.45-3.45,3.45s-3.45-1.54-3.45-3.45v-16.12c0-1.91,1.54-3.45,3.45-3.45ZM109.82,46.68v34.55c0,1.91-1.54,3.45-3.45,3.45s-3.45-1.54-3.45-3.45v-34.55c0-1.91,1.54-3.45,3.45-3.45s3.45,1.54,3.45,3.45Z"/>
    </g>
  </g>
</svg>