<?xml version="1.0" encoding="UTF-8"?>
<svg id="Ebene_2" data-name="Ebene 2" xmlns="http://www.w3.org/2000/svg" viewBox="0 0 155.16 141.73">
  <defs>
    <style>
      .cls-1 {
        fill: #fff;
      }

      .cls-1, .cls-2 {
        stroke-width: 0px;
      }

      .cls-2 {
        fill: #1d1d1b;
      }
    </style>
  </defs>
  <g id="a">
    <g>
      <path class="cls-2" d="M102.62,0h-50.1c-9.82,0-18.89,5.23-23.8,13.74L3.68,57.13c-4.91,8.5-4.91,18.98,0,27.48l25.05,43.39c4.91,8.5,13.98,13.74,23.8,13.74h50.1c9.82,0,18.89-5.23,23.8-13.74l25.05-43.39c4.91-8.5,4.91-18.98,0-27.48l-25.06-43.39c-4.91-8.5-13.98-13.74-23.8-13.74Z"/>
      <path class="cls-1" d="M77.93,42.22c-.23-.1-.49-.1-.72,0l-30.37,12.32c-1.09.44-1.79,1.49-1.79,2.65v37.27c0,1.59-1.28,2.87-2.87,2.87s-2.87-1.28-2.87-2.87v-37.27c0-3.5,2.13-6.66,5.37-7.98l30.38-12.32c1.61-.66,3.42-.66,5.03,0l30.37,12.32c3.25,1.32,5.38,4.47,5.38,7.98v37.27c0,1.59-1.28,2.87-2.87,2.87s-2.87-1.28-2.87-2.87v-37.27c0-1.17-.71-2.22-1.79-2.65l-30.38-12.32ZM56.53,75.33v5.74h42.09v-5.74h-42.09ZM56.53,91.59h42.09v-4.78h-42.09v4.78ZM53.7,97.33h-.04c-1.59,0-2.87-1.28-2.87-2.87v-30.61c0-2.64,2.14-4.78,4.78-4.78h44c2.64,0,4.78,2.14,4.78,4.78v30.61c0,1.59-1.28,2.87-2.87,2.87h-47.79ZM56.53,69.59h42.09v-4.78h-42.09v4.78Z"/>
    </g>
  </g>
</svg>